<svg width="23" height="23" viewBox="0 0 23 23" fill="none" xmlns="http://www.w3.org/2000/svg">
<g clip-path="url(#clip0_520_56758)">
<g clip-path="url(#clip1_520_56758)">
<g clip-path="url(#clip2_520_56758)">
<mask id="mask0_520_56758" style="mask-type:luminance" maskUnits="userSpaceOnUse" x="2" y="2" width="19" height="19">
<path d="M18.4745 3.05078H4.24482C3.75365 3.05078 3.35547 3.44875 3.35547 3.93967V18.1619C3.35547 18.6528 3.75365 19.0508 4.24482 19.0508H18.4745C18.9656 19.0508 19.3638 18.6528 19.3638 18.1619V3.93967C19.3638 3.44875 18.9656 3.05078 18.4745 3.05078Z" stroke="white" stroke-width="2"/>
</mask>
<g mask="url(#mask0_520_56758)">
<path d="M18.4745 3.05078H4.24482C3.75365 3.05078 3.35547 3.44875 3.35547 3.93967V18.1619C3.35547 18.6528 3.75365 19.0508 4.24482 19.0508H18.4745C18.9656 19.0508 19.3638 18.6528 19.3638 18.1619V3.93967C19.3638 3.44875 18.9656 3.05078 18.4745 3.05078Z" stroke="white" stroke-width="2"/>
</g>
<path d="M22.3654 8.05078H16.3623V14.0508H22.3654V8.05078Z" fill="white"/>
<path d="M6.35665 8.05078H0.353516V14.0508H6.35665V8.05078Z" fill="white"/>
<path d="M14.3606 3.05078C14.3606 1.39393 13.0167 0.0507812 11.359 0.0507812C9.70127 0.0507812 8.35742 1.39393 8.35742 3.05078C8.35742 4.70764 9.70127 6.05078 11.359 6.05078C13.0167 6.05078 14.3606 4.70764 14.3606 3.05078Z" fill="white"/>
<path d="M14.3606 19.0508C14.3606 17.3939 13.0167 16.0508 11.359 16.0508C9.70127 16.0508 8.35742 17.3939 8.35742 19.0508C8.35742 20.7076 9.70127 22.0508 11.359 22.0508C13.0167 22.0508 14.3606 20.7076 14.3606 19.0508Z" fill="white"/>
</g>
</g>
</g>
<defs>
<clipPath id="clip0_520_56758">
<rect width="22.0119" height="22" fill="white" transform="translate(0.353516 0.0507812)"/>
</clipPath>
<clipPath id="clip1_520_56758">
<rect width="22.0119" height="22" fill="white" transform="translate(0.353516 0.0507812)"/>
</clipPath>
<clipPath id="clip2_520_56758">
<rect width="22.0119" height="22" fill="white" transform="translate(0.353516 0.0507812)"/>
</clipPath>
</defs>
</svg>
