<svg width="19" height="19" viewBox="0 0 19 19" fill="none" xmlns="http://www.w3.org/2000/svg">
<g clip-path="url(#clip0_520_56949)">
<path d="M16.8597 2.15039H15.0597V3.05039C15.0597 3.28909 14.9648 3.518 14.7961 3.68679C14.6273 3.85557 14.3984 3.95039 14.1597 3.95039C13.921 3.95039 13.6921 3.85557 13.5233 3.68679C13.3545 3.518 13.2597 3.28909 13.2597 3.05039V2.15039H10.2597V3.05039C10.2597 3.28909 10.1648 3.518 9.99606 3.68679C9.82728 3.85557 9.59836 3.95039 9.35967 3.95039C9.12097 3.95039 8.89205 3.85557 8.72327 3.68679C8.55449 3.518 8.45967 3.28909 8.45967 3.05039V2.15039H5.45967V3.05039C5.45967 3.28909 5.36485 3.518 5.19606 3.68679C5.02728 3.85557 4.79836 3.95039 4.55967 3.95039C4.32097 3.95039 4.09205 3.85557 3.92327 3.68679C3.75449 3.518 3.65967 3.28909 3.65967 3.05039V2.15039H1.85967C1.54141 2.15039 1.23618 2.27682 1.01114 2.50186C0.786096 2.72691 0.659668 3.03213 0.659668 3.35039V5.75039H18.0597V3.35039C18.0597 3.03213 17.9332 2.72691 17.7082 2.50186C17.4832 2.27682 17.1779 2.15039 16.8597 2.15039Z" fill="white"/>
<path d="M8.15967 7.85156H6.95967C6.79398 7.85156 6.65967 7.98588 6.65967 8.15156V9.05156C6.65967 9.21725 6.79398 9.35156 6.95967 9.35156H8.15967C8.32535 9.35156 8.45967 9.21725 8.45967 9.05156V8.15156C8.45967 7.98588 8.32535 7.85156 8.15967 7.85156Z" fill="white"/>
<path d="M4.55957 7.85156H3.35957C3.19388 7.85156 3.05957 7.98588 3.05957 8.15156V9.05156C3.05957 9.21725 3.19388 9.35156 3.35957 9.35156H4.55957C4.72526 9.35156 4.85957 9.21725 4.85957 9.05156V8.15156C4.85957 7.98588 4.72526 7.85156 4.55957 7.85156Z" fill="white"/>
<path d="M15.3596 7.85156H14.1596C13.9939 7.85156 13.8596 7.98588 13.8596 8.15156V9.05156C13.8596 9.21725 13.9939 9.35156 14.1596 9.35156H15.3596C15.5253 9.35156 15.6596 9.21725 15.6596 9.05156V8.15156C15.6596 7.98588 15.5253 7.85156 15.3596 7.85156Z" fill="white"/>
<path d="M8.15967 10.5508H6.95967C6.79398 10.5508 6.65967 10.6851 6.65967 10.8508V11.7508C6.65967 11.9165 6.79398 12.0508 6.95967 12.0508H8.15967C8.32535 12.0508 8.45967 11.9165 8.45967 11.7508V10.8508C8.45967 10.6851 8.32535 10.5508 8.15967 10.5508Z" fill="white"/>
<path d="M4.55957 10.5508H3.35957C3.19388 10.5508 3.05957 10.6851 3.05957 10.8508V11.7508C3.05957 11.9165 3.19388 12.0508 3.35957 12.0508H4.55957C4.72526 12.0508 4.85957 11.9165 4.85957 11.7508V10.8508C4.85957 10.6851 4.72526 10.5508 4.55957 10.5508Z" fill="white"/>
<path d="M8.15967 13.25H6.95967C6.79398 13.25 6.65967 13.3843 6.65967 13.55V14.45C6.65967 14.6157 6.79398 14.75 6.95967 14.75H8.15967C8.32535 14.75 8.45967 14.6157 8.45967 14.45V13.55C8.45967 13.3843 8.32535 13.25 8.15967 13.25Z" fill="white"/>
<path d="M11.7598 7.85156H10.5598C10.3941 7.85156 10.2598 7.98588 10.2598 8.15156V9.05156C10.2598 9.21725 10.3941 9.35156 10.5598 9.35156H11.7598C11.9255 9.35156 12.0598 9.21725 12.0598 9.05156V8.15156C12.0598 7.98588 11.9255 7.85156 11.7598 7.85156Z" fill="white"/>
<path d="M11.7598 10.5508H10.5598C10.3941 10.5508 10.2598 10.6851 10.2598 10.8508V11.7508C10.2598 11.9165 10.3941 12.0508 10.5598 12.0508H11.7598C11.9255 12.0508 12.0598 11.9165 12.0598 11.7508V10.8508C12.0598 10.6851 11.9255 10.5508 11.7598 10.5508Z" fill="white"/>
<path d="M4.55957 13.25H3.35957C3.19388 13.25 3.05957 13.3843 3.05957 13.55V14.45C3.05957 14.6157 3.19388 14.75 3.35957 14.75H4.55957C4.72526 14.75 4.85957 14.6157 4.85957 14.45V13.55C4.85957 13.3843 4.72526 13.25 4.55957 13.25Z" fill="white"/>
<path d="M16.8596 1.85078H15.3596V1.25078C15.3596 0.932521 15.2332 0.627297 15.0081 0.402253C14.7831 0.177209 14.4779 0.0507813 14.1596 0.0507812C13.8414 0.0507813 13.5361 0.177209 13.3111 0.402253C13.086 0.627297 12.9596 0.932521 12.9596 1.25078V1.85078H10.5596V1.25078C10.5596 0.932521 10.4332 0.627297 10.2081 0.402253C9.9831 0.177209 9.67788 0.0507813 9.35962 0.0507812C9.04136 0.0507813 8.73614 0.177209 8.51109 0.402253C8.28605 0.627297 8.15962 0.932521 8.15962 1.25078V1.85078H5.75962V1.25078C5.75962 0.932521 5.63319 0.627297 5.40815 0.402253C5.1831 0.177209 4.87788 0.0507813 4.55962 0.0507812C4.24136 0.0507813 3.93613 0.177209 3.71109 0.402253C3.48605 0.627297 3.35962 0.932521 3.35962 1.25078V1.85078H1.85962C1.46179 1.85078 1.08026 2.00882 0.798959 2.29012C0.517654 2.57143 0.359619 2.95296 0.359619 3.35078V15.3508C0.359619 15.7486 0.517654 16.1301 0.798959 16.4114C1.08026 16.6927 1.46179 16.8508 1.85962 16.8508H10.2596C10.3392 16.8508 10.4155 16.8192 10.4718 16.7629C10.528 16.7066 10.5596 16.6303 10.5596 16.5508C10.5596 16.4712 10.528 16.3949 10.4718 16.3386C10.4155 16.2824 10.3392 16.2508 10.2596 16.2508H1.85962C1.62114 16.2501 1.39264 16.155 1.22401 15.9864C1.05538 15.8178 0.960331 15.5893 0.959619 15.3508V6.05078H17.7596V11.1508C17.7596 11.2303 17.7912 11.3067 17.8475 11.3629C17.9037 11.4192 17.9801 11.4508 18.0596 11.4508C18.1392 11.4508 18.2155 11.4192 18.2718 11.3629C18.328 11.3067 18.3596 11.2303 18.3596 11.1508V3.35078C18.3596 2.95296 18.2016 2.57143 17.9203 2.29012C17.639 2.00882 17.2574 1.85078 16.8596 1.85078ZM13.5596 1.25078C13.5596 1.09165 13.6228 0.939039 13.7354 0.826517C13.8479 0.713995 14.0005 0.650781 14.1596 0.650781C14.3187 0.650781 14.4714 0.713995 14.5839 0.826517C14.6964 0.939039 14.7596 1.09165 14.7596 1.25078V3.05078C14.7596 3.20991 14.6964 3.36252 14.5839 3.47504C14.4714 3.58757 14.3187 3.65078 14.1596 3.65078C14.0005 3.65078 13.8479 3.58757 13.7354 3.47504C13.6228 3.36252 13.5596 3.20991 13.5596 3.05078V1.25078ZM8.75962 1.25078C8.75962 1.09165 8.82283 0.939039 8.93536 0.826517C9.04788 0.713995 9.20049 0.650781 9.35962 0.650781C9.51875 0.650781 9.67136 0.713995 9.78388 0.826517C9.89641 0.939039 9.95962 1.09165 9.95962 1.25078V3.05078C9.95962 3.20991 9.89641 3.36252 9.78388 3.47504C9.67136 3.58757 9.51875 3.65078 9.35962 3.65078C9.20049 3.65078 9.04788 3.58757 8.93536 3.47504C8.82283 3.36252 8.75962 3.20991 8.75962 3.05078V1.25078ZM3.95962 1.25078C3.95962 1.09165 4.02283 0.939039 4.13536 0.826517C4.24788 0.713995 4.40049 0.650781 4.55962 0.650781C4.71875 0.650781 4.87136 0.713995 4.98388 0.826517C5.09641 0.939039 5.15962 1.09165 5.15962 1.25078V3.05078C5.15962 3.20991 5.09641 3.36252 4.98388 3.47504C4.87136 3.58757 4.71875 3.65078 4.55962 3.65078C4.40049 3.65078 4.24788 3.58757 4.13536 3.47504C4.02283 3.36252 3.95962 3.20991 3.95962 3.05078V1.25078ZM17.7596 5.45078H0.959619V3.35078C0.960331 3.1123 1.05538 2.8838 1.22401 2.71517C1.39264 2.54654 1.62114 2.45149 1.85962 2.45078H3.35962V3.05078C3.35962 3.36904 3.48605 3.67427 3.71109 3.89931C3.93613 4.12435 4.24136 4.25078 4.55962 4.25078C4.87788 4.25078 5.1831 4.12435 5.40815 3.89931C5.63319 3.67427 5.75962 3.36904 5.75962 3.05078V2.45078H8.15962V3.05078C8.15962 3.36904 8.28605 3.67427 8.51109 3.89931C8.73614 4.12435 9.04136 4.25078 9.35962 4.25078C9.67788 4.25078 9.9831 4.12435 10.2081 3.89931C10.4332 3.67427 10.5596 3.36904 10.5596 3.05078V2.45078H12.9596V3.05078C12.9596 3.36904 13.086 3.67427 13.3111 3.89931C13.5361 4.12435 13.8414 4.25078 14.1596 4.25078C14.4779 4.25078 14.7831 4.12435 15.0081 3.89931C15.2332 3.67427 15.3596 3.36904 15.3596 3.05078V2.45078H16.8596C17.0981 2.45149 17.3266 2.54654 17.4952 2.71517C17.6639 2.8838 17.7589 3.1123 17.7596 3.35078V5.45078Z" fill="white"/>
<path d="M8.75962 8.15078C8.75962 7.99165 8.6964 7.83904 8.58388 7.72652C8.47136 7.614 8.31875 7.55078 8.15962 7.55078H6.95962C6.80049 7.55078 6.64788 7.614 6.53536 7.72652C6.42283 7.83904 6.35962 7.99165 6.35962 8.15078V9.05078C6.35962 9.20991 6.42283 9.36252 6.53536 9.47505C6.64788 9.58757 6.80049 9.65078 6.95962 9.65078H8.15962C8.31875 9.65078 8.47136 9.58757 8.58388 9.47505C8.6964 9.36252 8.75962 9.20991 8.75962 9.05078V8.15078ZM6.95962 9.05078V8.15078H8.15962V9.05078H6.95962Z" fill="white"/>
<path d="M5.15977 8.15078C5.15977 7.99165 5.09655 7.83904 4.98403 7.72652C4.87151 7.614 4.7189 7.55078 4.55977 7.55078H3.35977C3.20064 7.55078 3.04802 7.614 2.9355 7.72652C2.82298 7.83904 2.75977 7.99165 2.75977 8.15078V9.05078C2.75977 9.20991 2.82298 9.36252 2.9355 9.47505C3.04802 9.58757 3.20064 9.65078 3.35977 9.65078H4.55977C4.7189 9.65078 4.87151 9.58757 4.98403 9.47505C5.09655 9.36252 5.15977 9.20991 5.15977 9.05078V8.15078ZM3.35977 9.05078V8.15078H4.55977V9.05078H3.35977Z" fill="white"/>
<path d="M15.3596 9.65078C15.5187 9.65078 15.6713 9.58757 15.7838 9.47505C15.8964 9.36252 15.9596 9.20991 15.9596 9.05078V8.15078C15.9596 7.99165 15.8964 7.83904 15.7838 7.72652C15.6713 7.614 15.5187 7.55078 15.3596 7.55078H14.1596C14.0004 7.55078 13.8478 7.614 13.7353 7.72652C13.6228 7.83904 13.5596 7.99165 13.5596 8.15078V9.05078C13.5596 9.20991 13.6228 9.36252 13.7353 9.47505C13.8478 9.58757 14.0004 9.65078 14.1596 9.65078H15.3596ZM14.1596 8.15078H15.3596V9.05078H14.1596V8.15078Z" fill="white"/>
<path d="M8.75962 10.85C8.75962 10.6909 8.6964 10.5383 8.58388 10.4257C8.47136 10.3132 8.31875 10.25 8.15962 10.25H6.95962C6.80049 10.25 6.64788 10.3132 6.53536 10.4257C6.42283 10.5383 6.35962 10.6909 6.35962 10.85V11.75C6.35962 11.9091 6.42283 12.0617 6.53536 12.1743C6.64788 12.2868 6.80049 12.35 6.95962 12.35H8.15962C8.31875 12.35 8.47136 12.2868 8.58388 12.1743C8.6964 12.0617 8.75962 11.9091 8.75962 11.75V10.85ZM6.95962 11.75V10.85H8.15962V11.75H6.95962Z" fill="white"/>
<path d="M5.15977 10.85C5.15977 10.6909 5.09655 10.5383 4.98403 10.4257C4.87151 10.3132 4.7189 10.25 4.55977 10.25H3.35977C3.20064 10.25 3.04802 10.3132 2.9355 10.4257C2.82298 10.5383 2.75977 10.6909 2.75977 10.85V11.75C2.75977 11.9091 2.82298 12.0617 2.9355 12.1743C3.04802 12.2868 3.20064 12.35 3.35977 12.35H4.55977C4.7189 12.35 4.87151 12.2868 4.98403 12.1743C5.09655 12.0617 5.15977 11.9091 5.15977 11.75V10.85ZM3.35977 11.75V10.85H4.55977V11.75H3.35977Z" fill="white"/>
<path d="M8.15962 12.9512H6.95962C6.80049 12.9512 6.64788 13.0144 6.53536 13.1269C6.42283 13.2394 6.35962 13.392 6.35962 13.5512V14.4512C6.35962 14.6103 6.42283 14.7629 6.53536 14.8754C6.64788 14.988 6.80049 15.0512 6.95962 15.0512H8.15962C8.31875 15.0512 8.47136 14.988 8.58388 14.8754C8.6964 14.7629 8.75962 14.6103 8.75962 14.4512V13.5512C8.75962 13.392 8.6964 13.2394 8.58388 13.1269C8.47136 13.0144 8.31875 12.9512 8.15962 12.9512ZM6.95962 14.4512V13.5512H8.15962V14.4512H6.95962Z" fill="white"/>
<path d="M10.5595 9.65078H11.7595C11.9186 9.65078 12.0712 9.58757 12.1837 9.47505C12.2963 9.36252 12.3595 9.20991 12.3595 9.05078V8.15078C12.3595 7.99165 12.2963 7.83904 12.1837 7.72652C12.0712 7.614 11.9186 7.55078 11.7595 7.55078H10.5595C10.4003 7.55078 10.2477 7.614 10.1352 7.72652C10.0227 7.83904 9.95947 7.99165 9.95947 8.15078V9.05078C9.95947 9.20991 10.0227 9.36252 10.1352 9.47505C10.2477 9.58757 10.4003 9.65078 10.5595 9.65078ZM10.5595 8.15078H11.7595V9.05078H10.5595V8.15078Z" fill="white"/>
<path d="M9.95947 11.75C9.95947 11.9091 10.0227 12.0617 10.1352 12.1743C10.2477 12.2868 10.4003 12.35 10.5595 12.35C10.639 12.35 10.7153 12.3184 10.7716 12.2621C10.8279 12.2059 10.8595 12.1296 10.8595 12.05C10.8595 11.9704 10.8279 11.8941 10.7716 11.8379C10.7153 11.7816 10.639 11.75 10.5595 11.75V10.85H11.7595C11.839 10.85 11.9153 10.8184 11.9716 10.7621C12.0279 10.7059 12.0595 10.6296 12.0595 10.55C12.0595 10.4704 12.0279 10.3941 11.9716 10.3379C11.9153 10.2816 11.839 10.25 11.7595 10.25H10.5595C10.4003 10.25 10.2477 10.3132 10.1352 10.4257C10.0227 10.5383 9.95947 10.6909 9.95947 10.85V11.75Z" fill="white"/>
<path d="M4.55977 12.9512H3.35977C3.20064 12.9512 3.04802 13.0144 2.9355 13.1269C2.82298 13.2394 2.75977 13.392 2.75977 13.5512V14.4512C2.75977 14.6103 2.82298 14.7629 2.9355 14.8754C3.04802 14.988 3.20064 15.0512 3.35977 15.0512H4.55977C4.7189 15.0512 4.87151 14.988 4.98403 14.8754C5.09655 14.7629 5.15977 14.6103 5.15977 14.4512V13.5512C5.15977 13.392 5.09655 13.2394 4.98403 13.1269C4.87151 13.0144 4.7189 12.9512 4.55977 12.9512ZM3.35977 14.4512V13.5512H4.55977V14.4512H3.35977Z" fill="white"/>
<path d="M14.4596 10.25C13.6882 10.25 12.9342 10.4787 12.2928 10.9073C11.6515 11.3358 11.1516 11.9449 10.8564 12.6575C10.5613 13.3702 10.484 14.1543 10.6345 14.9109C10.785 15.6674 11.1564 16.3623 11.7019 16.9077C12.2473 17.4531 12.9422 17.8246 13.6987 17.9751C14.4552 18.1255 15.2394 18.0483 15.952 17.7531C16.6647 17.4579 17.2738 16.9581 17.7023 16.3167C18.1308 15.6754 18.3596 14.9213 18.3596 14.15C18.3584 13.116 17.9471 12.1247 17.216 11.3936C16.4848 10.6625 15.4936 10.2512 14.4596 10.25ZM14.4596 17.45C13.8069 17.45 13.1689 17.2565 12.6262 16.8938C12.0835 16.5312 11.6605 16.0159 11.4108 15.4129C11.161 14.8099 11.0956 14.1463 11.223 13.5062C11.3503 12.8661 11.6646 12.2781 12.1261 11.8165C12.5876 11.355 13.1756 11.0407 13.8158 10.9134C14.4559 10.7861 15.1194 10.8514 15.7224 11.1012C16.3254 11.351 16.8408 11.7739 17.2034 12.3166C17.566 12.8593 17.7596 13.4973 17.7596 14.15C17.7585 15.0249 17.4105 15.8637 16.7919 16.4823C16.1732 17.101 15.3345 17.449 14.4596 17.45Z" fill="white"/>
<path fill-rule="evenodd" clip-rule="evenodd" d="M18.0596 14.1508C18.0596 16.139 16.4478 17.7508 14.4596 17.7508C12.4714 17.7508 10.8596 16.139 10.8596 14.1508C10.8596 12.1626 12.4714 10.5508 14.4596 10.5508C16.4478 10.5508 18.0596 12.1626 18.0596 14.1508ZM13.8596 15.2266L16.193 12.8932C16.2495 12.8385 16.3253 12.8083 16.404 12.809C16.4826 12.8097 16.5579 12.8412 16.6135 12.8968C16.6691 12.9525 16.7007 13.0277 16.7014 13.1064C16.702 13.185 16.6718 13.2608 16.6172 13.3174L14.0717 15.8629C14.0154 15.9191 13.9391 15.9507 13.8596 15.9507C13.78 15.9507 13.7037 15.9191 13.6475 15.8629L12.3749 14.59C12.3202 14.5334 12.29 14.4576 12.2907 14.379C12.2913 14.3003 12.3229 14.225 12.3785 14.1694C12.4341 14.1138 12.5094 14.0823 12.588 14.0816C12.6667 14.0809 12.7425 14.1111 12.7991 14.1658L13.8596 15.2266Z" fill="white"/>
</g>
<defs>
<clipPath id="clip0_520_56949">
<rect width="18" height="18" fill="white" transform="translate(0.359619 0.0507812)"/>
</clipPath>
</defs>
</svg>
