<svg width="19" height="19" viewBox="0 0 19 19" fill="none" xmlns="http://www.w3.org/2000/svg">
<path d="M17.9856 13.8242L11.6271 1.42052C10.6055 -0.404584 8.11512 -0.407009 7.09215 1.42052L0.733924 13.8242C-0.310428 15.6892 0.953967 18.0508 3.00087 18.0508H15.7182C17.7633 18.0508 19.03 15.6911 17.9856 13.8242ZM9.35962 15.8124C8.7782 15.8124 8.30493 15.3101 8.30493 14.6931C8.30493 14.0762 8.7782 13.5739 9.35962 13.5739C9.94103 13.5739 10.4143 14.0762 10.4143 14.6931C10.4143 15.3101 9.94103 15.8124 9.35962 15.8124ZM10.4143 11.3355C10.4143 11.9525 9.94103 12.4547 9.35962 12.4547C8.7782 12.4547 8.30493 11.9525 8.30493 11.3355V5.73944C8.30493 5.12246 8.7782 4.62023 9.35962 4.62023C9.94103 4.62023 10.4143 5.12246 10.4143 5.73944V11.3355Z" fill="white"/>
</svg>
