<svg width="19" height="19" viewBox="0 0 19 19" fill="none" xmlns="http://www.w3.org/2000/svg">
<g clip-path="url(#clip0_520_56921)">
<path d="M7.36676 10.2844H3.5739C3.2139 10.2844 2.93105 9.98437 2.93105 9.60256C2.93105 9.22756 3.2139 8.92074 3.5739 8.92074H6.60819C6.42819 8.51165 6.28676 8.0821 6.18391 7.6321H3.5739C3.2139 7.6321 2.93105 7.32528 2.93105 6.95028C2.93105 6.57528 3.2139 6.26847 3.5739 6.26847H5.99748C5.99105 6.15256 5.99105 6.04347 5.99105 5.92756C5.99105 5.11619 6.11962 4.33892 6.35105 3.60938H2.6739C1.39462 3.60938 0.359619 4.71392 0.359619 6.06392V13.1412C0.359619 14.4026 1.26605 15.4526 2.42962 15.5753V17.0139C2.42962 17.4162 2.64176 17.7707 2.98248 17.948C3.11748 18.0162 3.26533 18.0503 3.40676 18.0503C3.62533 18.0503 3.83748 17.9753 4.01105 17.8253L5.45748 16.6185C6.24176 15.9571 7.23176 15.5889 8.24105 15.5889H12.6896C13.9625 15.5889 15.0039 14.4912 15.0039 13.1412V12.7866C14.316 13.0321 13.5832 13.1685 12.8182 13.1685C10.5939 13.1685 8.6139 12.0366 7.36676 10.2844ZM7.68176 12.9435H3.5739C3.2139 12.9435 2.93105 12.6366 2.93105 12.2616C2.93105 11.8866 3.2139 11.5798 3.5739 11.5798H7.68176C8.03533 11.5798 8.32462 11.8866 8.32462 12.2616C8.32462 12.6366 8.03533 12.9435 7.68176 12.9435Z" fill="white"/>
<path d="M12.8183 0.0507812C9.75828 0.0507812 7.27686 2.68942 7.27686 5.92805C7.27686 9.17351 9.75828 11.8053 12.8183 11.8053C15.8719 11.8053 18.3597 9.17351 18.3597 5.92805C18.3597 2.68942 15.8719 0.0507812 12.8183 0.0507812ZM12.8119 9.71214C12.4583 9.71214 12.169 9.40533 12.169 9.03033C12.169 8.65533 12.4519 8.34851 12.8054 8.34851H12.8119C13.1654 8.34851 13.4547 8.65533 13.4547 9.03033C13.4547 9.40533 13.1654 9.71214 12.8119 9.71214ZM13.4611 6.56214V6.97805C13.4611 7.35305 13.1719 7.65987 12.8183 7.65987C12.4647 7.65987 12.1754 7.35305 12.1754 6.97805V6.00987C12.1754 5.63487 12.4647 5.32805 12.8183 5.32805C13.1204 5.32805 13.3711 5.06896 13.3711 4.74169C13.3711 4.42124 13.1204 4.16214 12.8183 4.16214C12.5161 4.16214 12.2654 4.42124 12.2654 4.74169C12.2654 5.12351 11.9761 5.42351 11.6226 5.42351C11.269 5.42351 10.9797 5.12351 10.9797 4.74169C10.9797 3.67124 11.8026 2.79851 12.8183 2.79851C13.8276 2.79851 14.6569 3.67124 14.6569 4.74169C14.6569 5.58033 14.1554 6.2826 13.4611 6.56214Z" fill="white"/>
</g>
<defs>
<clipPath id="clip0_520_56921">
<rect width="18" height="18" fill="white" transform="translate(0.359619 0.0507812)"/>
</clipPath>
</defs>
</svg>
