<svg width="19" height="19" viewBox="0 0 19 19" fill="none" xmlns="http://www.w3.org/2000/svg">
<g clip-path="url(#clip0_520_56889)">
<path d="M17.8323 15.9414H0.886963C0.595729 15.9414 0.359619 16.1775 0.359619 16.4687C0.359619 16.76 0.595729 16.9961 0.886963 16.9961H1.44946V17.5234C1.44946 17.8147 1.68557 18.0508 1.97681 18.0508C2.26804 18.0508 2.50415 17.8147 2.50415 17.5234V16.9961H3.55884V17.5234C3.55884 17.8147 3.79495 18.0508 4.08618 18.0508C4.37742 18.0508 4.61353 17.8147 4.61353 17.5234V16.9961H5.66821V17.5234C5.66821 17.8147 5.90432 18.0508 6.19556 18.0508C6.48679 18.0508 6.7229 17.8147 6.7229 17.5234V16.9961H7.77759V17.5234C7.77759 17.8147 8.0137 18.0508 8.30493 18.0508C8.59617 18.0508 8.83228 17.8147 8.83228 17.5234V16.9961H9.88696V17.5234C9.88696 17.8147 10.1231 18.0508 10.4143 18.0508C10.7055 18.0508 10.9417 17.8147 10.9417 17.5234V16.9961H11.9963V17.5234C11.9963 17.8147 12.2324 18.0508 12.5237 18.0508C12.8149 18.0508 13.051 17.8147 13.051 17.5234V16.9961H14.1057V17.5234C14.1057 17.8147 14.3418 18.0508 14.6331 18.0508C14.9243 18.0508 15.1604 17.8147 15.1604 17.5234V16.9961H16.2151V17.5234C16.2151 17.8147 16.4512 18.0508 16.7424 18.0508C17.0337 18.0508 17.2698 17.8147 17.2698 17.5234V16.9961H17.8323C18.1235 16.9961 18.3596 16.76 18.3596 16.4687C18.3596 16.1775 18.1235 15.9414 17.8323 15.9414Z" fill="white"/>
<path d="M2.32837 14.8867H3.73462C4.02585 14.8867 4.26196 14.6506 4.26196 14.3594V8.03125C4.26196 7.74002 4.02585 7.50391 3.73462 7.50391H2.32837C2.03713 7.50391 1.80103 7.74002 1.80103 8.03125V14.3594C1.80103 14.6506 2.03713 14.8867 2.32837 14.8867Z" fill="white"/>
<path d="M14.9846 4.69141C14.6934 4.69141 14.4573 4.92752 14.4573 5.21875V14.3594C14.4573 14.6506 14.6934 14.8867 14.9846 14.8867H16.3909C16.6821 14.8867 16.9182 14.6506 16.9182 14.3594V5.21875C16.9182 4.92752 16.6821 4.69141 16.3909 4.69141H14.9846Z" fill="white"/>
<path d="M6.54712 4.69141C6.25588 4.69141 6.01978 4.92752 6.01978 5.21875V14.3594C6.01978 14.6506 6.25588 14.8867 6.54712 14.8867H7.95337C8.2446 14.8867 8.48071 14.6506 8.48071 14.3594V5.21875C8.48071 4.92752 8.2446 4.69141 7.95337 4.69141H6.54712Z" fill="white"/>
<path d="M10.7659 7.50391C10.4746 7.50391 10.2385 7.74002 10.2385 8.03125V14.3594C10.2385 14.6506 10.4746 14.8867 10.7659 14.8867H12.1721C12.4634 14.8867 12.6995 14.6506 12.6995 14.3594V8.03125C12.6995 7.74002 12.4634 7.50391 12.1721 7.50391H10.7659Z" fill="white"/>
<path d="M3.03149 5.32424C3.70997 5.32424 4.26196 4.77226 4.26196 4.09378C4.26196 4.03338 4.25739 3.97404 4.24896 3.91592L6.61813 2.33646C6.80299 2.44766 7.01923 2.51175 7.25024 2.51175C7.48126 2.51175 7.6975 2.44766 7.88239 2.33646L10.2516 3.91592C10.2431 3.97404 10.2386 4.03338 10.2386 4.09378C10.2386 4.77226 10.7905 5.32424 11.469 5.32424C12.1475 5.32424 12.6995 4.77226 12.6995 4.09378C12.6995 4.03338 12.6949 3.97404 12.6865 3.91592L15.0557 2.33646C15.2405 2.44766 15.4567 2.51175 15.6877 2.51175C16.3662 2.51175 16.9182 1.95976 16.9182 1.28128C16.9182 0.602804 16.3662 0.0508164 15.6877 0.0508164C15.0093 0.0508164 14.4573 0.602804 14.4573 1.28128C14.4573 1.34168 14.4618 1.40102 14.4703 1.45914L12.1011 3.0386C11.9163 2.9274 11.7 2.86331 11.469 2.86331C11.238 2.86331 11.0217 2.9274 10.8369 3.03856L8.46771 1.4591C8.47614 1.40099 8.48071 1.34168 8.48071 1.28125C8.48071 0.602768 7.92872 0.0507812 7.25024 0.0507812C6.57176 0.0507812 6.01978 0.602768 6.01978 1.28125C6.01978 1.34165 6.02435 1.40099 6.03278 1.4591L3.6636 3.03856C3.47875 2.9274 3.26247 2.86331 3.03149 2.86331C2.35301 2.86331 1.80103 3.4153 1.80103 4.09378C1.80103 4.77226 2.35301 5.32424 3.03149 5.32424Z" fill="white"/>
</g>
<defs>
<clipPath id="clip0_520_56889">
<rect width="18" height="18" fill="white" transform="translate(0.359619 0.0507812)"/>
</clipPath>
</defs>
</svg>
