<svg width="1428" height="498" viewBox="0 0 1428 498" fill="none" xmlns="http://www.w3.org/2000/svg">
<mask id="mask0_543_61062" style="mask-type:luminance" maskUnits="userSpaceOnUse" x="0" y="0" width="1428" height="496">
<path d="M1427.06 0.360352H0.452148V496H1427.06V0.360352Z" fill="white"/>
</mask>
<g mask="url(#mask0_543_61062)">
<path d="M374.284 186.747C374.284 289.689 290.597 373.135 187.368 373.135C155.001 373.135 124.556 364.935 98.0109 350.498C39.8877 318.891 0.452148 257.413 0.452148 186.747C0.452148 83.8096 84.1371 0.360352 187.366 0.360352C290.597 0.360352 374.284 83.8096 374.284 186.747Z" fill="#20B276"/>
<path d="M261.97 239.761C242.191 260.086 218.188 270.255 189.967 270.255C172.743 270.255 156.739 267.348 141.737 258.903L141.557 367.132L140.135 366.749L139.255 366.524L138.216 365.96L137.727 365.077L137.276 364.079L137.776 363.454L88.2837 304.608L88.2982 165.504C88.2982 136.52 98.186 111.903 117.966 91.6498C137.741 71.3955 161.743 61.2705 189.967 61.2705C218.188 61.2705 242.19 71.4315 261.97 91.7608C281.745 112.087 291.636 136.756 291.636 165.762C291.636 194.772 281.745 219.436 261.97 239.761ZM224.217 130.531C214.827 120.871 203.41 116.043 189.967 116.043C176.521 116.043 165.104 120.871 155.717 130.531C146.326 140.19 141.63 151.932 141.63 165.765C141.63 179.594 146.324 191.336 155.717 200.995C165.104 210.656 176.521 215.487 189.967 215.487C203.41 215.487 214.827 210.656 224.217 200.995C233.607 191.336 238.302 179.594 238.302 165.765C238.302 151.932 233.607 140.189 224.217 130.531Z" fill="#147F52"/>
<path d="M258.079 235.918C238.301 256.245 214.301 266.412 186.078 266.412C168.853 266.412 152.743 262.19 137.743 253.744L137.727 366.493C137.727 366.493 134.076 365.49 129.324 363.96C128.152 363.582 126.969 363.178 125.73 362.741C125.14 362.532 124.853 362.41 124.246 362.235C122.691 361.789 120.721 360.927 119.202 360.338C114.099 358.357 109.965 356.468 109.865 356.422C109.765 356.375 95.1591 349.426 93.5121 348.401C92.037 347.481 90.7237 346.761 89.5983 345.956C89.2385 345.699 88.9669 345.516 88.626 345.283C85.9503 343.449 84.455 342.396 84.455 342.396L84.4102 161.664C84.4102 132.678 94.298 108.061 114.078 87.81C133.855 67.5543 157.855 57.4307 186.079 57.4307C214.302 57.4307 238.302 67.5917 258.08 87.921C277.857 108.247 287.75 132.916 287.75 161.92C287.747 190.927 277.856 215.591 258.079 235.918ZM220.328 126.688C210.936 117.028 199.521 112.2 186.076 112.2C172.63 112.2 161.214 117.028 151.826 126.688C142.435 136.347 137.741 148.089 137.741 161.92C137.741 175.751 142.435 187.492 151.826 197.151C161.214 206.815 172.63 211.644 186.076 211.644C199.519 211.644 210.936 206.815 220.328 197.151C229.716 187.492 234.413 175.751 234.413 161.92C234.413 148.089 229.716 136.347 220.328 126.688Z" fill="white"/>
<path d="M421.151 311.513V70.8765C421.151 67.3181 422.503 64.189 425.211 61.4877C427.915 58.7879 431.05 57.4365 434.62 57.4365H501.595C523.857 57.4365 542.832 65.268 558.515 80.9238C574.198 96.5795 582.04 115.522 582.04 137.747C582.04 159.851 574.186 178.761 558.483 194.481C542.778 210.2 523.779 218.056 501.486 218.056H461.206C452.338 218.056 447.905 213.581 447.905 204.626V311.521C447.905 320.477 443.445 324.952 434.528 324.952C425.608 324.953 421.151 320.474 421.151 311.513ZM447.905 204.626C447.905 195.795 452.338 191.38 461.212 191.38H501.504C516.287 191.38 528.95 186.151 539.484 175.69C550.019 165.228 555.288 152.61 555.288 137.841C555.288 123.074 550.019 110.428 539.484 99.9017C528.949 89.3805 516.287 84.1163 501.504 84.1163H447.905V204.626Z" fill="#3B3938"/>
<path d="M734.251 311.507C734.251 320.47 729.761 324.952 720.784 324.952C711.803 324.952 707.375 320.478 707.499 311.521C695.567 320.478 682.158 324.952 667.276 324.952C648.826 324.952 633.019 318.422 619.859 305.358C606.696 292.295 600.116 276.563 600.116 258.164C600.116 239.766 606.696 224.006 619.859 210.88C633.019 197.757 648.826 191.193 667.276 191.193C682.158 191.193 695.567 195.672 707.499 204.625C707.499 193.537 703.561 184.051 695.691 176.162C687.818 168.275 678.347 164.332 667.278 164.332C659.528 164.332 651.747 167.032 643.938 172.427C636.125 177.827 631.299 180.524 629.455 180.524C625.765 180.524 622.536 179.138 619.768 176.366C616.999 173.596 615.615 170.361 615.615 166.665C615.615 163.71 617.028 160.571 619.86 157.241C630.807 144.184 646.614 137.655 667.278 137.655C685.728 137.655 701.504 144.196 714.604 157.27C727.704 170.346 734.254 186.092 734.254 204.51V311.507H734.251ZM707.499 258.074C707.499 247.011 703.552 237.544 695.662 229.675C687.773 221.808 678.278 217.872 667.185 217.872C656.088 217.872 646.595 221.808 638.705 229.675C630.815 237.544 626.871 247.011 626.871 258.074C626.871 269.138 630.815 278.605 638.705 286.473C646.595 294.341 656.09 298.274 667.185 298.274C678.278 298.274 687.773 294.341 695.662 286.473C703.552 278.605 707.499 269.138 707.499 258.074Z" fill="#3B3938"/>
<path d="M957.501 231.213C957.501 257.119 948.337 279.218 930.01 297.514C911.68 315.809 889.54 324.954 863.587 324.954C837.757 324.954 815.677 315.812 797.349 297.523C779.019 279.235 769.858 257.142 769.858 231.242V70.8765C769.858 61.9185 774.347 57.4365 783.328 57.4365C792.184 57.4365 796.611 61.9213 796.611 70.8909V165.806C815.061 147.039 837.387 137.655 863.586 137.655C889.539 137.655 911.678 146.803 930.009 165.097C948.337 183.393 957.501 205.431 957.501 231.213ZM930.747 231.213C930.747 212.913 924.165 197.193 911.005 184.049C897.842 170.906 882.038 164.333 863.587 164.333C845.258 164.333 829.515 170.906 816.354 184.049C803.191 197.193 796.612 212.913 796.612 231.213C796.612 249.637 803.191 265.419 816.354 278.564C829.515 291.707 845.259 298.276 863.587 298.276C882.038 298.276 897.842 291.707 911.005 278.564C924.165 265.419 930.747 249.637 930.747 231.213Z" fill="#3B3938"/>
<path d="M1172.08 231.213C1172.08 257.119 1162.92 279.218 1144.59 297.514C1126.26 315.809 1104.12 324.954 1078.17 324.954C1052.34 324.954 1030.26 315.812 1011.93 297.523C993.599 279.235 984.438 257.142 984.438 231.242V70.8765C984.438 61.9185 988.927 57.4365 997.907 57.4365C1006.76 57.4365 1011.19 61.9213 1011.19 70.8909V165.806C1029.64 147.039 1051.97 137.655 1078.17 137.655C1104.12 137.655 1126.26 146.803 1144.59 165.097C1162.92 183.393 1172.08 205.431 1172.08 231.213ZM1145.33 231.213C1145.33 212.913 1138.74 197.193 1125.58 184.049C1112.42 170.906 1096.62 164.333 1078.17 164.333C1059.84 164.333 1044.09 170.906 1030.93 184.049C1017.77 197.193 1011.19 212.913 1011.19 231.213C1011.19 249.637 1017.77 265.419 1030.93 278.564C1044.09 291.707 1059.84 298.276 1078.17 298.276C1096.62 298.276 1112.42 291.707 1125.58 278.564C1138.75 265.419 1145.33 249.637 1145.33 231.213Z" fill="#3B3938"/>
<path d="M1265.99 311.522C1265.99 320.479 1261.5 324.953 1252.53 324.953C1237.89 324.953 1225.31 319.706 1214.79 309.211C1204.28 298.717 1199.02 286.106 1199.02 271.375V70.8765C1199.02 61.9185 1203.51 57.4365 1212.49 57.4365C1221.34 57.4365 1225.77 61.9185 1225.77 70.8794V271.394C1225.77 278.758 1228.42 285.081 1233.71 290.359C1238.99 295.637 1245.27 298.276 1252.52 298.276C1261.5 298.276 1265.99 302.691 1265.99 311.522Z" fill="#3B3938"/>
<path d="M1427.07 338.338C1427.07 356.627 1420.51 372.337 1407.41 385.473C1394.31 398.601 1378.54 405.172 1360.09 405.172C1348.52 405.172 1337.39 402.163 1326.69 396.156C1315.62 390.02 1307.44 381.988 1302.15 372.054C1300.8 369.354 1300.12 366.962 1300.12 364.879C1300.12 361.319 1301.57 358.225 1304.46 355.588C1307.35 352.949 1310.58 351.632 1314.15 351.632C1317.22 351.632 1322.79 356.108 1330.85 365.063C1338.9 374.016 1348.65 378.493 1360.09 378.493C1371.16 378.493 1380.63 374.566 1388.5 366.719C1396.37 358.867 1400.31 349.423 1400.31 338.385V311.522C1388.38 320.479 1374.97 324.954 1360.09 324.954C1341.64 324.954 1325.86 318.416 1312.76 305.342C1299.66 292.268 1293.11 276.52 1293.11 258.101V150.918C1293.11 142.078 1297.6 137.657 1306.58 137.657C1315.44 137.657 1319.87 142.078 1319.87 150.918V258.121C1319.87 269.175 1323.8 278.63 1331.67 286.489C1339.54 294.35 1349.02 298.277 1360.09 298.277C1371.16 298.277 1380.63 294.35 1388.5 286.489C1396.37 278.63 1400.31 269.174 1400.31 258.121V150.918C1400.31 142.078 1404.8 137.657 1413.78 137.657C1422.64 137.657 1427.06 142.075 1427.06 150.912V338.338H1427.07Z" fill="#3B3938"/>
<mask id="path-11-outside-1_543_61062" maskUnits="userSpaceOnUse" x="419" y="395" width="281" height="100" fill="black">
<rect fill="white" x="419" y="395" width="281" height="100"/>
<path d="M488.032 487.29C488.032 490.43 486.462 492 483.323 492C480.183 492 478.613 490.43 478.613 487.29V449.806H431.774V487.29C431.774 490.43 430.204 492 427.065 492C423.925 492 422.355 490.43 422.355 487.29V402.968C422.355 399.828 423.925 398.258 427.065 398.258C430.204 398.258 431.774 399.828 431.774 402.968V440.452H478.613V402.968C478.613 399.828 480.183 398.258 483.323 398.258C486.462 398.258 488.032 399.828 488.032 402.968V487.29ZM566.149 459.161C566.149 468.237 562.923 475.978 556.472 482.387C550.063 488.796 542.343 492 533.31 492C524.278 492 516.536 488.796 510.085 482.387C503.676 475.978 500.472 468.237 500.472 459.161C500.472 450.129 503.676 442.409 510.085 436C516.536 429.591 524.278 426.387 533.31 426.387C542.343 426.387 550.063 429.591 556.472 436C562.923 442.409 566.149 450.129 566.149 459.161ZM556.73 459.161C556.73 452.753 554.429 447.247 549.827 442.645C545.267 438.043 539.762 435.742 533.31 435.742C526.859 435.742 521.332 438.043 516.73 442.645C512.171 447.247 509.891 452.753 509.891 459.161C509.891 465.613 512.171 471.14 516.73 475.742C521.332 480.344 526.859 482.645 533.31 482.645C539.762 482.645 545.267 480.344 549.827 475.742C554.429 471.14 556.73 465.613 556.73 459.161ZM638.073 459.161C638.073 468.237 634.847 475.978 628.396 482.387C621.987 488.796 614.267 492 605.234 492C596.202 492 588.46 488.796 582.009 482.387C575.6 475.978 572.396 468.237 572.396 459.161C572.396 450.129 575.6 442.409 582.009 436C588.46 429.591 596.202 426.387 605.234 426.387C614.267 426.387 621.987 429.591 628.396 436C634.847 442.409 638.073 450.129 638.073 459.161ZM628.654 459.161C628.654 452.753 626.353 447.247 621.75 442.645C617.191 438.043 611.686 435.742 605.234 435.742C598.783 435.742 593.256 438.043 588.654 442.645C584.095 447.247 581.815 452.753 581.815 459.161C581.815 465.613 584.095 471.14 588.654 475.742C593.256 480.344 598.783 482.645 605.234 482.645C611.686 482.645 617.191 480.344 621.75 475.742C626.353 471.14 628.654 465.613 628.654 459.161ZM697.545 487.29C697.545 488.538 697.051 489.656 696.061 490.645C695.115 491.591 694.018 492.065 692.771 492.065C691.524 492.065 690.427 491.591 689.481 490.645L661.352 462.516C660.621 461.785 660.169 460.968 659.997 460.065V487.29C659.997 490.43 658.427 492 655.287 492C652.147 492 650.577 490.43 650.577 487.29V402.968C650.577 399.828 652.147 398.258 655.287 398.258C658.427 398.258 659.997 399.828 659.997 402.968V458.323C660.169 457.419 660.621 456.602 661.352 455.871L689.481 427.742C690.427 426.796 691.524 426.323 692.771 426.323C694.018 426.323 695.115 426.817 696.061 427.806C697.051 428.753 697.545 429.849 697.545 431.097C697.545 432.301 697.072 433.398 696.126 434.387L671.287 459.161L696.126 484C697.072 484.989 697.545 486.086 697.545 487.29Z"/>
</mask>
<path d="M488.032 487.29C488.032 490.43 486.462 492 483.323 492C480.183 492 478.613 490.43 478.613 487.29V449.806H431.774V487.29C431.774 490.43 430.204 492 427.065 492C423.925 492 422.355 490.43 422.355 487.29V402.968C422.355 399.828 423.925 398.258 427.065 398.258C430.204 398.258 431.774 399.828 431.774 402.968V440.452H478.613V402.968C478.613 399.828 480.183 398.258 483.323 398.258C486.462 398.258 488.032 399.828 488.032 402.968V487.29ZM566.149 459.161C566.149 468.237 562.923 475.978 556.472 482.387C550.063 488.796 542.343 492 533.31 492C524.278 492 516.536 488.796 510.085 482.387C503.676 475.978 500.472 468.237 500.472 459.161C500.472 450.129 503.676 442.409 510.085 436C516.536 429.591 524.278 426.387 533.31 426.387C542.343 426.387 550.063 429.591 556.472 436C562.923 442.409 566.149 450.129 566.149 459.161ZM556.73 459.161C556.73 452.753 554.429 447.247 549.827 442.645C545.267 438.043 539.762 435.742 533.31 435.742C526.859 435.742 521.332 438.043 516.73 442.645C512.171 447.247 509.891 452.753 509.891 459.161C509.891 465.613 512.171 471.14 516.73 475.742C521.332 480.344 526.859 482.645 533.31 482.645C539.762 482.645 545.267 480.344 549.827 475.742C554.429 471.14 556.73 465.613 556.73 459.161ZM638.073 459.161C638.073 468.237 634.847 475.978 628.396 482.387C621.987 488.796 614.267 492 605.234 492C596.202 492 588.46 488.796 582.009 482.387C575.6 475.978 572.396 468.237 572.396 459.161C572.396 450.129 575.6 442.409 582.009 436C588.46 429.591 596.202 426.387 605.234 426.387C614.267 426.387 621.987 429.591 628.396 436C634.847 442.409 638.073 450.129 638.073 459.161ZM628.654 459.161C628.654 452.753 626.353 447.247 621.75 442.645C617.191 438.043 611.686 435.742 605.234 435.742C598.783 435.742 593.256 438.043 588.654 442.645C584.095 447.247 581.815 452.753 581.815 459.161C581.815 465.613 584.095 471.14 588.654 475.742C593.256 480.344 598.783 482.645 605.234 482.645C611.686 482.645 617.191 480.344 621.75 475.742C626.353 471.14 628.654 465.613 628.654 459.161ZM697.545 487.29C697.545 488.538 697.051 489.656 696.061 490.645C695.115 491.591 694.018 492.065 692.771 492.065C691.524 492.065 690.427 491.591 689.481 490.645L661.352 462.516C660.621 461.785 660.169 460.968 659.997 460.065V487.29C659.997 490.43 658.427 492 655.287 492C652.147 492 650.577 490.43 650.577 487.29V402.968C650.577 399.828 652.147 398.258 655.287 398.258C658.427 398.258 659.997 399.828 659.997 402.968V458.323C660.169 457.419 660.621 456.602 661.352 455.871L689.481 427.742C690.427 426.796 691.524 426.323 692.771 426.323C694.018 426.323 695.115 426.817 696.061 427.806C697.051 428.753 697.545 429.849 697.545 431.097C697.545 432.301 697.072 433.398 696.126 434.387L671.287 459.161L696.126 484C697.072 484.989 697.545 486.086 697.545 487.29Z" fill="#3B3938"/>
<path d="M478.613 449.806H481.057V447.362H478.613V449.806ZM431.774 449.806V447.362H429.33V449.806H431.774ZM431.774 440.452H429.33V442.896H431.774V440.452ZM478.613 440.452V442.896H481.057V440.452H478.613ZM485.588 487.29C485.588 488.483 485.291 488.929 485.126 489.094C484.962 489.259 484.516 489.556 483.323 489.556V494.444C485.269 494.444 487.178 493.956 488.583 492.551C489.988 491.146 490.477 489.237 490.477 487.29H485.588ZM483.323 489.556C482.129 489.556 481.684 489.259 481.519 489.094C481.354 488.929 481.057 488.483 481.057 487.29H476.168C476.168 489.237 476.657 491.146 478.062 492.551C479.467 493.956 481.376 494.444 483.323 494.444V489.556ZM481.057 487.29V449.806H476.168V487.29H481.057ZM478.613 447.362H431.774V452.251H478.613V447.362ZM429.33 449.806V487.29H434.219V449.806H429.33ZM429.33 487.29C429.33 488.483 429.033 488.929 428.868 489.094C428.703 489.259 428.258 489.556 427.065 489.556V494.444C429.011 494.444 430.92 493.956 432.325 492.551C433.73 491.146 434.219 489.237 434.219 487.29H429.33ZM427.065 489.556C425.871 489.556 425.426 489.259 425.261 489.094C425.096 488.929 424.799 488.483 424.799 487.29H419.91C419.91 489.237 420.399 491.146 421.804 492.551C423.209 493.956 425.118 494.444 427.065 494.444V489.556ZM424.799 487.29V402.968H419.91V487.29H424.799ZM424.799 402.968C424.799 401.775 425.096 401.329 425.261 401.164C425.426 400.999 425.871 400.703 427.065 400.703V395.814C425.118 395.814 423.209 396.302 421.804 397.707C420.399 399.112 419.91 401.021 419.91 402.968H424.799ZM427.065 400.703C428.258 400.703 428.703 400.999 428.868 401.164C429.033 401.329 429.33 401.775 429.33 402.968H434.219C434.219 401.021 433.73 399.112 432.325 397.707C430.92 396.302 429.011 395.814 427.065 395.814V400.703ZM429.33 402.968V440.452H434.219V402.968H429.33ZM431.774 442.896H478.613V438.007H431.774V442.896ZM481.057 440.452V402.968H476.168V440.452H481.057ZM481.057 402.968C481.057 401.775 481.354 401.329 481.519 401.164C481.684 400.999 482.129 400.703 483.323 400.703V395.814C481.376 395.814 479.467 396.302 478.062 397.707C476.657 399.112 476.168 401.021 476.168 402.968H481.057ZM483.323 400.703C484.516 400.703 484.962 400.999 485.126 401.164C485.291 401.329 485.588 401.775 485.588 402.968H490.477C490.477 401.021 489.988 399.112 488.583 397.707C487.178 396.302 485.269 395.814 483.323 395.814V400.703ZM485.588 402.968V487.29H490.477V402.968H485.588ZM556.472 482.387L554.749 480.653L554.743 480.659L556.472 482.387ZM510.085 482.387L508.356 484.116L508.362 484.121L510.085 482.387ZM510.085 436L508.362 434.266L508.356 434.272L510.085 436ZM556.472 436L554.743 437.728L554.749 437.734L556.472 436ZM549.827 442.645L548.09 444.366L548.098 444.374L549.827 442.645ZM516.73 442.645L515.001 440.917L514.993 440.925L516.73 442.645ZM516.73 475.742L514.993 477.462L515.001 477.47L516.73 475.742ZM549.827 475.742L548.098 474.013L548.09 474.022L549.827 475.742ZM563.705 459.161C563.705 467.584 560.74 474.702 554.749 480.653L558.194 484.121C565.107 477.255 568.594 468.889 568.594 459.161H563.705ZM554.743 480.659C548.791 486.611 541.692 489.556 533.31 489.556V494.444C542.994 494.444 551.335 490.981 558.2 484.116L554.743 480.659ZM533.31 489.556C524.929 489.556 517.805 486.61 511.807 480.653L508.362 484.121C515.268 490.981 523.628 494.444 533.31 494.444V489.556ZM511.813 480.659C505.864 474.709 502.916 467.589 502.916 459.161H498.027C498.027 468.884 501.488 477.248 508.356 484.116L511.813 480.659ZM502.916 459.161C502.916 450.78 505.861 443.68 511.813 437.728L508.356 434.272C501.491 441.137 498.027 449.478 498.027 459.161H502.916ZM511.807 437.734C517.805 431.777 524.929 428.832 533.31 428.832V423.943C523.628 423.943 515.268 427.406 508.362 434.266L511.807 437.734ZM533.31 428.832C541.692 428.832 548.791 431.777 554.743 437.728L558.2 434.272C551.335 427.406 542.994 423.943 533.31 423.943V428.832ZM554.749 437.734C560.742 443.687 563.705 450.785 563.705 459.161H568.594C568.594 449.473 565.105 441.13 558.194 434.266L554.749 437.734ZM559.174 459.161C559.174 452.093 556.608 445.969 551.555 440.917L548.098 444.374C552.25 448.525 554.285 453.412 554.285 459.161H559.174ZM551.563 440.925C546.547 435.861 540.417 433.297 533.31 433.297V438.186C539.107 438.186 543.988 440.225 548.09 444.366L551.563 440.925ZM533.31 433.297C526.204 433.297 520.057 435.861 515.001 440.917L518.458 444.374C522.607 440.225 527.514 438.186 533.31 438.186V433.297ZM514.993 440.925C509.986 445.979 507.447 452.101 507.447 459.161H512.336C512.336 453.405 514.355 448.515 518.466 444.366L514.993 440.925ZM507.447 459.161C507.447 466.26 509.983 472.404 514.993 477.462L518.466 474.022C514.359 469.875 512.336 464.966 512.336 459.161H507.447ZM515.001 477.47C520.057 482.526 526.204 485.09 533.31 485.09V480.201C527.514 480.201 522.607 478.162 518.458 474.013L515.001 477.47ZM533.31 485.09C540.417 485.09 546.547 482.526 551.563 477.462L548.09 474.022C543.988 478.162 539.107 480.201 533.31 480.201V485.09ZM551.555 477.47C556.611 472.414 559.174 466.268 559.174 459.161H554.285C554.285 464.958 552.246 469.865 548.098 474.013L551.555 477.47ZM628.396 482.387L626.673 480.653L626.667 480.659L628.396 482.387ZM582.009 482.387L580.28 484.116L580.286 484.121L582.009 482.387ZM582.009 436L580.286 434.266L580.28 434.272L582.009 436ZM628.396 436L626.667 437.728L626.673 437.734L628.396 436ZM621.75 442.645L620.014 444.366L620.022 444.374L621.75 442.645ZM588.654 442.645L586.925 440.917L586.917 440.925L588.654 442.645ZM588.654 475.742L586.917 477.462L586.925 477.47L588.654 475.742ZM621.75 475.742L620.022 474.013L620.014 474.022L621.75 475.742ZM635.629 459.161C635.629 467.584 632.664 474.702 626.673 480.653L630.118 484.121C637.031 477.255 640.517 468.889 640.517 459.161H635.629ZM626.667 480.659C620.715 486.611 613.616 489.556 605.234 489.556V494.444C614.917 494.444 623.259 490.981 630.124 484.116L626.667 480.659ZM605.234 489.556C596.852 489.556 589.728 486.61 583.731 480.653L580.286 484.121C587.192 490.981 595.552 494.444 605.234 494.444V489.556ZM583.737 480.659C577.787 474.709 574.84 467.589 574.84 459.161H569.951C569.951 468.884 573.412 477.248 580.28 484.116L583.737 480.659ZM574.84 459.161C574.84 450.78 577.785 443.68 583.737 437.728L580.28 434.272C573.415 441.137 569.951 449.478 569.951 459.161H574.84ZM583.731 437.734C589.728 431.777 596.852 428.832 605.234 428.832V423.943C595.552 423.943 587.192 427.406 580.286 434.266L583.731 437.734ZM605.234 428.832C613.616 428.832 620.715 431.777 626.667 437.728L630.124 434.272C623.259 427.406 614.917 423.943 605.234 423.943V428.832ZM626.673 437.734C632.666 443.687 635.629 450.785 635.629 459.161H640.517C640.517 449.473 637.028 441.13 630.118 434.266L626.673 437.734ZM631.098 459.161C631.098 452.093 628.531 445.969 623.479 440.917L620.022 444.374C624.174 448.525 626.209 453.412 626.209 459.161H631.098ZM623.487 440.925C618.471 435.861 612.341 433.297 605.234 433.297V438.186C611.031 438.186 615.912 440.225 620.014 444.366L623.487 440.925ZM605.234 433.297C598.128 433.297 591.981 435.861 586.925 440.917L590.382 444.374C594.53 440.225 599.437 438.186 605.234 438.186V433.297ZM586.917 440.925C581.91 445.979 579.371 452.101 579.371 459.161H584.259C584.259 453.405 586.279 448.515 590.39 444.366L586.917 440.925ZM579.371 459.161C579.371 466.26 581.907 472.404 586.917 477.462L590.39 474.022C586.282 469.875 584.259 464.966 584.259 459.161H579.371ZM586.925 477.47C591.981 482.526 598.128 485.09 605.234 485.09V480.201C599.437 480.201 594.53 478.162 590.382 474.013L586.925 477.47ZM605.234 485.09C612.341 485.09 618.471 482.526 623.487 477.462L620.014 474.022C615.912 478.162 611.031 480.201 605.234 480.201V485.09ZM623.479 477.47C628.535 472.414 631.098 466.268 631.098 459.161H626.209C626.209 464.958 624.17 469.865 620.022 474.013L623.479 477.47ZM696.061 490.645L697.79 492.374L697.79 492.374L696.061 490.645ZM689.481 490.645L687.752 492.374L687.752 492.374L689.481 490.645ZM661.352 462.516L663.08 460.788L661.352 462.516ZM659.997 460.065L662.398 459.607L657.552 460.065H659.997ZM659.997 458.323H657.552L662.398 458.78L659.997 458.323ZM661.352 455.871L663.08 457.599L663.08 457.599L661.352 455.871ZM689.481 427.742L687.752 426.013L687.752 426.013L689.481 427.742ZM696.061 427.806L694.295 429.496L694.332 429.535L694.372 429.573L696.061 427.806ZM696.126 434.387L697.852 436.118L697.872 436.098L697.892 436.077L696.126 434.387ZM671.287 459.161L669.561 457.431L667.828 459.159L669.559 460.89L671.287 459.161ZM696.126 484L697.892 482.31L697.874 482.291L697.854 482.272L696.126 484ZM695.101 487.29C695.101 487.808 694.925 488.325 694.333 488.917L697.79 492.374C699.177 490.987 699.99 489.267 699.99 487.29H695.101ZM694.333 488.917C693.808 489.441 693.32 489.62 692.771 489.62V494.509C694.717 494.509 696.422 493.741 697.79 492.374L694.333 488.917ZM692.771 489.62C692.222 489.62 691.734 489.441 691.209 488.917L687.752 492.374C689.12 493.741 690.825 494.509 692.771 494.509V489.62ZM691.209 488.917L663.08 460.788L659.623 464.245L687.752 492.374L691.209 488.917ZM663.08 460.788C662.651 460.358 662.467 459.97 662.398 459.607L657.596 460.522C657.871 461.965 658.59 463.212 659.623 464.245L663.08 460.788ZM657.552 460.065V487.29H662.441V460.065H657.552ZM657.552 487.29C657.552 488.483 657.256 488.929 657.091 489.094C656.926 489.259 656.48 489.556 655.287 489.556V494.444C657.234 494.444 659.143 493.956 660.548 492.551C661.953 491.146 662.441 489.237 662.441 487.29H657.552ZM655.287 489.556C654.094 489.556 653.648 489.259 653.483 489.094C653.319 488.929 653.022 488.483 653.022 487.29H648.133C648.133 489.237 648.621 491.146 650.026 492.551C651.431 493.956 653.34 494.444 655.287 494.444V489.556ZM653.022 487.29V402.968H648.133V487.29H653.022ZM653.022 402.968C653.022 401.775 653.319 401.329 653.483 401.164C653.648 400.999 654.094 400.703 655.287 400.703V395.814C653.34 395.814 651.431 396.302 650.026 397.707C648.621 399.112 648.133 401.021 648.133 402.968H653.022ZM655.287 400.703C656.48 400.703 656.926 400.999 657.091 401.164C657.256 401.329 657.552 401.775 657.552 402.968H662.441C662.441 401.021 661.953 399.112 660.548 397.707C659.143 396.302 657.234 395.814 655.287 395.814V400.703ZM657.552 402.968V458.323H662.441V402.968H657.552ZM662.398 458.78C662.467 458.417 662.651 458.029 663.08 457.599L659.623 454.142C658.59 455.176 657.871 456.422 657.596 457.865L662.398 458.78ZM663.08 457.599L691.209 429.47L687.752 426.013L659.623 454.142L663.08 457.599ZM691.209 429.47C691.734 428.946 692.222 428.767 692.771 428.767V423.878C690.825 423.878 689.12 424.646 687.752 426.013L691.209 429.47ZM692.771 428.767C693.282 428.767 693.76 428.937 694.295 429.496L697.828 426.117C696.47 424.697 694.754 423.878 692.771 423.878V428.767ZM694.372 429.573C694.931 430.108 695.101 430.585 695.101 431.097H699.99C699.99 429.114 699.17 427.398 697.751 426.04L694.372 429.573ZM695.101 431.097C695.101 431.584 694.935 432.096 694.359 432.697L697.892 436.077C699.209 434.7 699.99 433.018 699.99 431.097H695.101ZM694.4 432.656L669.561 457.431L673.013 460.892L697.852 436.118L694.4 432.656ZM669.559 460.89L694.397 485.728L697.854 482.272L673.016 457.433L669.559 460.89ZM694.359 485.69C694.935 486.291 695.101 486.803 695.101 487.29H699.99C699.99 485.369 699.209 483.687 697.892 482.31L694.359 485.69Z" fill="#3B3938" mask="url(#path-11-outside-1_543_61062)"/>
</g>
</svg>
