<svg width="136" height="50" viewBox="0 0 136 50" fill="none" xmlns="http://www.w3.org/2000/svg">
<g clip-path="url(#clip0_549_62872)">
<path d="M35.394 18.0636C35.394 27.4739 27.4706 35.1018 17.697 35.1018C14.6326 35.1018 11.7501 34.3523 9.23678 33.0326C3.73373 30.1434 0 24.5234 0 18.0636C0 8.65377 7.92321 1.02539 17.6969 1.02539C27.4706 1.02539 35.394 8.65377 35.394 18.0636Z" fill="#20B276"/>
<path d="M24.7604 22.9101C22.8878 24.7681 20.6152 25.6978 17.9432 25.6978C16.3125 25.6978 14.7973 25.432 13.3769 24.66L13.3598 34.5535L13.2252 34.5185L13.1419 34.4979L13.0435 34.4466L12.9972 34.3657L12.9545 34.2746L13.0018 34.2174L8.31592 28.8381L8.31729 16.1221C8.31729 13.4725 9.25346 11.2222 11.1262 9.37083C12.9985 7.51931 15.271 6.59375 17.9432 6.59375C20.6152 6.59375 22.8877 7.52261 24.7604 9.38096C26.6328 11.2391 27.5693 13.4941 27.5693 16.1457C27.5693 18.7975 26.6328 21.0521 24.7604 22.9101ZM21.186 12.925C20.2969 12.042 19.216 11.6007 17.9432 11.6007C16.6702 11.6007 15.5893 12.042 14.7004 12.925C13.8113 13.8081 13.3668 14.8814 13.3668 16.1459C13.3668 17.4101 13.8112 18.4834 14.7004 19.3664C15.5893 20.2496 16.6702 20.6912 17.9432 20.6912C19.216 20.6912 20.2969 20.2496 21.186 19.3664C22.075 18.4834 22.5196 17.4101 22.5196 16.1459C22.5196 14.8814 22.075 13.8079 21.186 12.925Z" fill="#147F52"/>
<path d="M24.3918 22.5583C22.5192 24.4165 20.2469 25.3459 17.5748 25.3459C15.944 25.3459 14.4187 24.9599 12.9985 24.1879L12.997 34.4945C12.997 34.4945 12.6513 34.4029 12.2014 34.263C12.0905 34.2286 11.9784 34.1916 11.8611 34.1517C11.8053 34.1326 11.778 34.1214 11.7206 34.1056C11.5734 34.0647 11.3868 33.9859 11.2431 33.932C10.7599 33.7508 10.3685 33.5783 10.359 33.574C10.3496 33.5696 8.96668 32.9347 8.81073 32.8407C8.67109 32.7568 8.54675 32.6909 8.4402 32.6172C8.40613 32.594 8.38041 32.5771 8.34813 32.5557C8.0948 32.388 7.95323 32.2918 7.95323 32.2918L7.94897 15.7705C7.94897 13.1208 8.88516 10.8705 10.7579 9.01929C12.6304 7.16762 14.9027 6.24219 17.5749 6.24219C20.247 6.24219 22.5193 7.17104 24.3919 9.02942C26.2644 10.8875 27.2011 13.1426 27.2011 15.794C27.2008 18.4456 26.2643 20.7002 24.3918 22.5583ZM20.8176 12.5732C19.9283 11.6902 18.8476 11.2489 17.5747 11.2489C16.3016 11.2489 15.2207 11.6902 14.3319 12.5732C13.4427 13.4563 12.9983 14.5296 12.9983 15.794C12.9983 17.0583 13.4427 18.1316 14.3319 19.0145C15.2207 19.8979 16.3016 20.3394 17.5747 20.3394C18.8474 20.3394 19.9283 19.8979 20.8176 19.0145C21.7064 18.1316 22.1511 17.0583 22.1511 15.794C22.1511 14.5296 21.7064 13.4563 20.8176 12.5732Z" fill="white"/>
<path d="M39.8313 29.4681V7.47079C39.8313 7.1455 39.9595 6.85946 40.2159 6.61252C40.4718 6.36573 40.7686 6.24219 41.1067 6.24219H47.4478C49.5556 6.24219 51.3522 6.9581 52.8369 8.38923C54.3216 9.82039 55.0641 11.5519 55.0641 13.5836C55.0641 15.6042 54.3206 17.3329 52.834 18.7698C51.3469 20.2067 49.5482 20.9249 47.4375 20.9249H43.6238C42.7843 20.9249 42.3643 20.5158 42.3643 19.6972V29.4689C42.3643 30.2876 41.9422 30.6967 41.0979 30.6967C40.2534 30.6967 39.8313 30.2874 39.8313 29.4681ZM42.3643 19.6972C42.3643 18.8899 42.7843 18.4864 43.6244 18.4864H47.4391C48.8387 18.4864 50.0377 18.0083 51.035 17.0521C52.0326 16.0957 52.5314 14.9423 52.5314 13.5922C52.5314 12.2423 52.0326 11.0862 51.035 10.1241C50.0377 9.16228 48.8387 8.68109 47.4391 8.68109H42.3643V19.6972Z" fill="#3B3938"/>
<path d="M69.4754 29.4685C69.4754 30.288 69.0504 30.6976 68.2003 30.6976C67.3502 30.6976 66.931 30.2885 66.9427 29.4698C65.8129 30.2885 64.5434 30.6976 63.1345 30.6976C61.3876 30.6976 59.891 30.1006 58.6449 28.9065C57.3986 27.7124 56.7756 26.2742 56.7756 24.5923C56.7756 22.9104 57.3986 21.4698 58.6449 20.2699C59.891 19.0703 61.3876 18.4703 63.1345 18.4703C64.5434 18.4703 65.8129 18.8797 66.9427 19.6981C66.9427 18.6845 66.5697 17.8173 65.8248 17.0962C65.0792 16.3752 64.1826 16.0148 63.1345 16.0148C62.4007 16.0148 61.6641 16.2616 60.9248 16.7548C60.1849 17.2484 59.7281 17.4949 59.5534 17.4949C59.204 17.4949 58.8984 17.3682 58.6362 17.1148C58.3743 16.8616 58.2432 16.5659 58.2432 16.228C58.2432 15.9579 58.3769 15.6709 58.6449 15.3666C59.6816 14.173 61.178 13.5762 63.1345 13.5762C64.8814 13.5762 66.3749 14.1741 67.6154 15.3692C68.8556 16.5645 69.4757 18.0039 69.4757 19.6875V29.4685H69.4754ZM66.9427 24.584C66.9427 23.5727 66.5689 22.7073 65.8219 21.988C65.0749 21.2688 64.176 20.909 63.1258 20.909C62.0751 20.909 61.1764 21.2688 60.4294 21.988C59.6824 22.7073 59.3089 23.5727 59.3089 24.584C59.3089 25.5954 59.6824 26.4608 60.4294 27.18C61.1764 27.8992 62.0754 28.2588 63.1258 28.2588C64.176 28.2588 65.0749 27.8992 65.8219 27.18C66.5689 26.4608 66.9427 25.5954 66.9427 24.584Z" fill="#3B3938"/>
<path d="M90.6125 22.1277C90.6125 24.4958 89.745 26.5159 88.0097 28.1885C86.2742 29.8609 84.1781 30.697 81.7209 30.697C79.2753 30.697 77.1848 29.8612 75.4495 28.1893C73.7142 26.5175 72.8467 24.4979 72.8467 22.1303V7.47079C72.8467 6.6519 73.2717 6.24219 74.1221 6.24219C74.9605 6.24219 75.3797 6.65215 75.3797 7.47211V16.1485C77.1266 14.433 79.2402 13.5752 81.7209 13.5752C84.1781 13.5752 86.2742 14.4114 88.0097 16.0837C89.745 17.7563 90.6125 19.7708 90.6125 22.1277ZM88.0795 22.1277C88.0795 20.4547 87.4562 19.0178 86.2105 17.8162C84.9642 16.6147 83.4678 16.0139 81.7209 16.0139C79.9856 16.0139 78.4951 16.6147 77.249 17.8162C76.0027 19.0178 75.3797 20.4547 75.3797 22.1277C75.3797 23.8118 76.0027 25.2545 77.249 26.4561C78.4951 27.6577 79.9856 28.2582 81.7209 28.2582C83.4678 28.2582 84.9642 27.6577 86.2105 26.4561C87.4562 25.2545 88.0795 23.8118 88.0795 22.1277Z" fill="#3B3938"/>
<path d="M110.929 22.1277C110.929 24.4958 110.061 26.5159 108.326 28.1885C106.59 29.8609 104.494 30.697 102.037 30.697C99.5915 30.697 97.501 29.8612 95.7657 28.1893C94.0304 26.5175 93.1628 24.4979 93.1628 22.1303V7.47079C93.1628 6.6519 93.5879 6.24219 94.4382 6.24219C95.2767 6.24219 95.6956 6.65215 95.6956 7.47211V16.1485C97.4425 14.433 99.5564 13.5752 102.037 13.5752C104.494 13.5752 106.59 14.4114 108.326 16.0837C110.061 17.7563 110.929 19.7708 110.929 22.1277ZM108.396 22.1277C108.396 20.4547 107.772 19.0178 106.526 17.8162C105.28 16.6147 103.784 16.0139 102.037 16.0139C100.301 16.0139 98.811 16.6147 97.5652 17.8162C96.3189 19.0178 95.6959 20.4547 95.6959 22.1277C95.6959 23.8118 96.3189 25.2545 97.5652 26.4561C98.811 27.6577 100.302 28.2582 102.037 28.2582C103.784 28.2582 105.28 27.6577 106.526 26.4561C107.773 25.2545 108.396 23.8118 108.396 22.1277Z" fill="#3B3938"/>
<path d="M119.82 29.4689C119.82 30.2876 119.395 30.6967 118.545 30.6967C117.159 30.6967 115.968 30.2172 114.972 29.2576C113.977 28.2985 113.479 27.1455 113.479 25.799V7.47079C113.479 6.6519 113.904 6.24219 114.754 6.24219C115.593 6.24219 116.012 6.6519 116.012 7.47104V25.8007C116.012 26.4739 116.262 27.0518 116.763 27.5344C117.264 28.0168 117.858 28.2582 118.545 28.2582C119.395 28.2582 119.82 28.6617 119.82 29.4689Z" fill="#3B3938"/>
<path d="M135.07 31.9212C135.07 33.593 134.45 35.0291 133.21 36.2298C131.969 37.4298 130.476 38.0306 128.729 38.0306C127.634 38.0306 126.58 37.7555 125.567 37.2065C124.519 36.6456 123.744 35.9113 123.244 35.0031C123.116 34.7563 123.052 34.5378 123.052 34.3474C123.052 34.0218 123.188 33.739 123.462 33.4981C123.736 33.2567 124.041 33.1365 124.379 33.1365C124.67 33.1365 125.197 33.5456 125.96 34.3643C126.723 35.1825 127.646 35.5918 128.729 35.5918C129.777 35.5918 130.674 35.2327 131.419 34.5156C132.164 33.7977 132.537 32.9346 132.537 31.9255V29.4699C131.408 30.2886 130.138 30.6977 128.729 30.6977C126.982 30.6977 125.489 30.1 124.248 28.9049C123.008 27.7097 122.388 26.2701 122.388 24.5864V14.7884C122.388 13.9803 122.813 13.5762 123.663 13.5762C124.501 13.5762 124.921 13.9803 124.921 14.7884V24.5882C124.921 25.5987 125.293 26.463 126.039 27.1814C126.784 27.9001 127.681 28.2589 128.729 28.2589C129.777 28.2589 130.674 27.9001 131.419 27.1814C132.164 26.463 132.537 25.5986 132.537 24.5882V14.7884C132.537 13.9803 132.962 13.5762 133.812 13.5762C134.651 13.5762 135.07 13.9801 135.07 14.7879V31.9212H135.07Z" fill="#3B3938"/>
<mask id="path-10-outside-1_549_62872" maskUnits="userSpaceOnUse" x="39" y="34" width="33" height="12" fill="black">
<rect fill="white" x="39" y="34" width="33" height="12"/>
<path d="M47.0034 44.4976C47.0034 44.8325 46.836 45 46.5011 45C46.1662 45 45.9987 44.8325 45.9987 44.4976V40.4994H41.0026V44.4976C41.0026 44.8325 40.8351 45 40.5002 45C40.1653 45 39.9978 44.8325 39.9978 44.4976V35.5032C39.9978 35.1683 40.1653 35.0009 40.5002 35.0009C40.8351 35.0009 41.0026 35.1683 41.0026 35.5032V39.5015H45.9987V35.5032C45.9987 35.1683 46.1662 35.0009 46.5011 35.0009C46.836 35.0009 47.0034 35.1683 47.0034 35.5032V44.4976ZM55.9759 41.4972C55.9759 42.4652 55.6318 43.291 54.9437 43.9746C54.2601 44.6582 53.4366 45 52.4731 45C51.5097 45 50.6839 44.6582 49.9957 43.9746C49.3121 43.291 48.9703 42.4652 48.9703 41.4972C48.9703 40.5338 49.3121 39.7103 49.9957 39.0267C50.6839 38.3431 51.5097 38.0013 52.4731 38.0013C53.4366 38.0013 54.2601 38.3431 54.9437 39.0267C55.6318 39.7103 55.9759 40.5338 55.9759 41.4972ZM54.9712 41.4972C54.9712 40.8136 54.7257 40.2264 54.2348 39.7355C53.7485 39.2446 53.1613 38.9991 52.4731 38.9991C51.7849 38.9991 51.1954 39.2446 50.7045 39.7355C50.2182 40.2264 49.9751 40.8136 49.9751 41.4972C49.9751 42.1854 50.2182 42.7749 50.7045 43.2658C51.1954 43.7567 51.7849 44.0022 52.4731 44.0022C53.1613 44.0022 53.7485 43.7567 54.2348 43.2658C54.7257 42.7749 54.9712 42.1854 54.9712 41.4972ZM64.2878 41.4972C64.2878 42.4652 63.9437 43.291 63.2555 43.9746C62.5719 44.6582 61.7484 45 60.785 45C59.8216 45 58.9957 44.6582 58.3076 43.9746C57.624 43.291 57.2822 42.4652 57.2822 41.4972C57.2822 40.5338 57.624 39.7103 58.3076 39.0267C58.9957 38.3431 59.8216 38.0013 60.785 38.0013C61.7484 38.0013 62.5719 38.3431 63.2555 39.0267C63.9437 39.7103 64.2878 40.5338 64.2878 41.4972ZM63.2831 41.4972C63.2831 40.8136 63.0376 40.2264 62.5467 39.7355C62.0604 39.2446 61.4732 38.9991 60.785 38.9991C60.0968 38.9991 59.5073 39.2446 59.0164 39.7355C58.5301 40.2264 58.2869 40.8136 58.2869 41.4972C58.2869 42.1854 58.5301 42.7749 59.0164 43.2658C59.5073 43.7567 60.0968 44.0022 60.785 44.0022C61.4732 44.0022 62.0604 43.7567 62.5467 43.2658C63.0376 42.7749 63.2831 42.1854 63.2831 41.4972ZM71.2715 44.4976C71.2715 44.6307 71.2187 44.75 71.1132 44.8555C71.0123 44.9564 70.8953 45.0069 70.7622 45.0069C70.6292 45.0069 70.5122 44.9564 70.4113 44.8555L67.4108 41.8551C67.3329 41.7771 67.2847 41.6899 67.2663 41.5935V44.4976C67.2663 44.8325 67.0989 45 66.764 45C66.4291 45 66.2616 44.8325 66.2616 44.4976V35.5032C66.2616 35.1683 66.4291 35.0009 66.764 35.0009C67.0989 35.0009 67.2663 35.1683 67.2663 35.5032V41.4077C67.2847 41.3114 67.3329 41.2242 67.4108 41.1462L70.4113 38.1458C70.5122 38.0449 70.6292 37.9944 70.7622 37.9944C70.8953 37.9944 71.0123 38.0472 71.1132 38.1527C71.2187 38.2536 71.2715 38.3706 71.2715 38.5037C71.2715 38.6321 71.221 38.7491 71.1201 38.8546L68.4706 41.4972L71.1201 44.1467C71.221 44.2522 71.2715 44.3692 71.2715 44.4976Z"/>
</mask>
<path d="M47.0034 44.4976C47.0034 44.8325 46.836 45 46.5011 45C46.1662 45 45.9987 44.8325 45.9987 44.4976V40.4994H41.0026V44.4976C41.0026 44.8325 40.8351 45 40.5002 45C40.1653 45 39.9978 44.8325 39.9978 44.4976V35.5032C39.9978 35.1683 40.1653 35.0009 40.5002 35.0009C40.8351 35.0009 41.0026 35.1683 41.0026 35.5032V39.5015H45.9987V35.5032C45.9987 35.1683 46.1662 35.0009 46.5011 35.0009C46.836 35.0009 47.0034 35.1683 47.0034 35.5032V44.4976ZM55.9759 41.4972C55.9759 42.4652 55.6318 43.291 54.9437 43.9746C54.2601 44.6582 53.4366 45 52.4731 45C51.5097 45 50.6839 44.6582 49.9957 43.9746C49.3121 43.291 48.9703 42.4652 48.9703 41.4972C48.9703 40.5338 49.3121 39.7103 49.9957 39.0267C50.6839 38.3431 51.5097 38.0013 52.4731 38.0013C53.4366 38.0013 54.2601 38.3431 54.9437 39.0267C55.6318 39.7103 55.9759 40.5338 55.9759 41.4972ZM54.9712 41.4972C54.9712 40.8136 54.7257 40.2264 54.2348 39.7355C53.7485 39.2446 53.1613 38.9991 52.4731 38.9991C51.7849 38.9991 51.1954 39.2446 50.7045 39.7355C50.2182 40.2264 49.9751 40.8136 49.9751 41.4972C49.9751 42.1854 50.2182 42.7749 50.7045 43.2658C51.1954 43.7567 51.7849 44.0022 52.4731 44.0022C53.1613 44.0022 53.7485 43.7567 54.2348 43.2658C54.7257 42.7749 54.9712 42.1854 54.9712 41.4972ZM64.2878 41.4972C64.2878 42.4652 63.9437 43.291 63.2555 43.9746C62.5719 44.6582 61.7484 45 60.785 45C59.8216 45 58.9957 44.6582 58.3076 43.9746C57.624 43.291 57.2822 42.4652 57.2822 41.4972C57.2822 40.5338 57.624 39.7103 58.3076 39.0267C58.9957 38.3431 59.8216 38.0013 60.785 38.0013C61.7484 38.0013 62.5719 38.3431 63.2555 39.0267C63.9437 39.7103 64.2878 40.5338 64.2878 41.4972ZM63.2831 41.4972C63.2831 40.8136 63.0376 40.2264 62.5467 39.7355C62.0604 39.2446 61.4732 38.9991 60.785 38.9991C60.0968 38.9991 59.5073 39.2446 59.0164 39.7355C58.5301 40.2264 58.2869 40.8136 58.2869 41.4972C58.2869 42.1854 58.5301 42.7749 59.0164 43.2658C59.5073 43.7567 60.0968 44.0022 60.785 44.0022C61.4732 44.0022 62.0604 43.7567 62.5467 43.2658C63.0376 42.7749 63.2831 42.1854 63.2831 41.4972ZM71.2715 44.4976C71.2715 44.6307 71.2187 44.75 71.1132 44.8555C71.0123 44.9564 70.8953 45.0069 70.7622 45.0069C70.6292 45.0069 70.5122 44.9564 70.4113 44.8555L67.4108 41.8551C67.3329 41.7771 67.2847 41.6899 67.2663 41.5935V44.4976C67.2663 44.8325 67.0989 45 66.764 45C66.4291 45 66.2616 44.8325 66.2616 44.4976V35.5032C66.2616 35.1683 66.4291 35.0009 66.764 35.0009C67.0989 35.0009 67.2663 35.1683 67.2663 35.5032V41.4077C67.2847 41.3114 67.3329 41.2242 67.4108 41.1462L70.4113 38.1458C70.5122 38.0449 70.6292 37.9944 70.7622 37.9944C70.8953 37.9944 71.0123 38.0472 71.1132 38.1527C71.2187 38.2536 71.2715 38.3706 71.2715 38.5037C71.2715 38.6321 71.221 38.7491 71.1201 38.8546L68.4706 41.4972L71.1201 44.1467C71.221 44.2522 71.2715 44.3692 71.2715 44.4976Z" fill="#3B3938"/>
<path d="M45.9987 40.4994H46.3987V40.0994H45.9987V40.4994ZM41.0026 40.4994V40.0994H40.6026V40.4994H41.0026ZM41.0026 39.5015H40.6026V39.9015H41.0026V39.5015ZM45.9987 39.5015V39.9015H46.3987V39.5015H45.9987ZM46.6034 44.4976C46.6034 44.6034 46.5773 44.6093 46.595 44.5916C46.6128 44.5738 46.6069 44.6 46.5011 44.6V45.4C46.7302 45.4 46.9755 45.3425 47.1607 45.1573C47.3459 44.9721 47.4034 44.7267 47.4034 44.4976H46.6034ZM46.5011 44.6C46.3953 44.6 46.3894 44.5738 46.4071 44.5916C46.4249 44.6093 46.3987 44.6034 46.3987 44.4976H45.5987C45.5987 44.7267 45.6563 44.9721 45.8415 45.1573C46.0267 45.3425 46.272 45.4 46.5011 45.4V44.6ZM46.3987 44.4976V40.4994H45.5987V44.4976H46.3987ZM45.9987 40.0994H41.0026V40.8994H45.9987V40.0994ZM40.6026 40.4994V44.4976H41.4026V40.4994H40.6026ZM40.6026 44.4976C40.6026 44.6034 40.5764 44.6093 40.5941 44.5916C40.6119 44.5738 40.606 44.6 40.5002 44.6V45.4C40.7293 45.4 40.9746 45.3425 41.1598 45.1573C41.345 44.9721 41.4026 44.7267 41.4026 44.4976H40.6026ZM40.5002 44.6C40.3944 44.6 40.3885 44.5738 40.4063 44.5916C40.424 44.6093 40.3978 44.6034 40.3978 44.4976H39.5978C39.5978 44.7267 39.6554 44.9721 39.8406 45.1573C40.0258 45.3425 40.2711 45.4 40.5002 45.4V44.6ZM40.3978 44.4976V35.5032H39.5978V44.4976H40.3978ZM40.3978 35.5032C40.3978 35.3974 40.424 35.3916 40.4063 35.4093C40.3885 35.427 40.3944 35.4009 40.5002 35.4009V34.6009C40.2711 34.6009 40.0258 34.6584 39.8406 34.8436C39.6554 35.0288 39.5978 35.2741 39.5978 35.5032H40.3978ZM40.5002 35.4009C40.606 35.4009 40.6119 35.427 40.5941 35.4093C40.5764 35.3916 40.6026 35.3974 40.6026 35.5032H41.4026C41.4026 35.2741 41.345 35.0288 41.1598 34.8436C40.9746 34.6584 40.7293 34.6009 40.5002 34.6009V35.4009ZM40.6026 35.5032V39.5015H41.4026V35.5032H40.6026ZM41.0026 39.9015H45.9987V39.1015H41.0026V39.9015ZM46.3987 39.5015V35.5032H45.5987V39.5015H46.3987ZM46.3987 35.5032C46.3987 35.3974 46.4249 35.3916 46.4071 35.4093C46.3894 35.427 46.3953 35.4009 46.5011 35.4009V34.6009C46.272 34.6009 46.0267 34.6584 45.8415 34.8436C45.6563 35.0288 45.5987 35.2741 45.5987 35.5032H46.3987ZM46.5011 35.4009C46.6069 35.4009 46.6128 35.427 46.595 35.4093C46.5773 35.3916 46.6034 35.3974 46.6034 35.5032H47.4034C47.4034 35.2741 47.3459 35.0288 47.1607 34.8436C46.9755 34.6584 46.7302 34.6009 46.5011 34.6009V35.4009ZM46.6034 35.5032V44.4976H47.4034V35.5032H46.6034ZM54.9437 43.9746L54.6618 43.6908L54.6608 43.6918L54.9437 43.9746ZM49.9957 43.9746L49.7129 44.2575L49.7138 44.2584L49.9957 43.9746ZM49.9957 39.0267L49.7138 38.7429L49.7129 38.7438L49.9957 39.0267ZM54.9437 39.0267L54.6608 39.3095L54.6618 39.3105L54.9437 39.0267ZM54.2348 39.7355L53.9507 40.017L53.952 40.0183L54.2348 39.7355ZM50.7045 39.7355L50.4217 39.4526L50.4203 39.454L50.7045 39.7355ZM50.7045 43.2658L50.4203 43.5473L50.4217 43.5486L50.7045 43.2658ZM54.2348 43.2658L53.952 42.983L53.9507 42.9843L54.2348 43.2658ZM55.5759 41.4972C55.5759 42.3584 55.2745 43.0822 54.6618 43.6908L55.2256 44.2584C55.9891 43.4999 56.3759 42.572 56.3759 41.4972H55.5759ZM54.6608 43.6918C54.052 44.3006 53.3301 44.6 52.4731 44.6V45.4C53.5431 45.4 54.4682 45.0158 55.2265 44.2575L54.6608 43.6918ZM52.4731 44.6C51.6161 44.6 50.8914 44.3006 50.2776 43.6908L49.7138 44.2584C50.4763 45.0159 51.4033 45.4 52.4731 45.4V44.6ZM50.2785 43.6918C49.6701 43.0833 49.3703 42.3593 49.3703 41.4972H48.5703C48.5703 42.5712 48.9541 43.4988 49.7129 44.2575L50.2785 43.6918ZM49.3703 41.4972C49.3703 40.6403 49.6697 39.9184 50.2785 39.3095L49.7129 38.7438C48.9545 39.5021 48.5703 40.4273 48.5703 41.4972H49.3703ZM50.2776 39.3105C50.8914 38.7007 51.6161 38.4013 52.4731 38.4013V37.6013C51.4033 37.6013 50.4763 37.9854 49.7138 38.7429L50.2776 39.3105ZM52.4731 38.4013C53.3301 38.4013 54.052 38.7007 54.6608 39.3095L55.2265 38.7438C54.4682 37.9855 53.5431 37.6013 52.4731 37.6013V38.4013ZM54.6618 39.3105C55.2749 39.9195 55.5759 40.6411 55.5759 41.4972H56.3759C56.3759 40.4264 55.9887 39.501 55.2256 38.7429L54.6618 39.3105ZM55.3712 41.4972C55.3712 40.7057 55.0823 40.0172 54.5177 39.4526L53.952 40.0183C54.3692 40.4355 54.5712 40.9215 54.5712 41.4972H55.3712ZM54.519 39.454C53.9579 38.8876 53.2685 38.5991 52.4731 38.5991V39.3991C53.0541 39.3991 53.5391 39.6016 53.9507 40.017L54.519 39.454ZM52.4731 38.5991C51.6778 38.5991 50.9868 38.8875 50.4217 39.4526L50.9874 40.0183C51.404 39.6017 51.8921 39.3991 52.4731 39.3991V38.5991ZM50.4203 39.454C49.8607 40.0189 49.5751 40.7069 49.5751 41.4972H50.3751C50.3751 40.9203 50.5757 40.4339 50.9887 40.017L50.4203 39.454ZM49.5751 41.4972C49.5751 42.2913 49.8602 42.9819 50.4203 43.5473L50.9887 42.9843C50.5762 42.568 50.3751 42.0795 50.3751 41.4972H49.5751ZM50.4217 43.5486C50.9868 44.1138 51.6778 44.4022 52.4731 44.4022V43.6022C51.8921 43.6022 51.404 43.3996 50.9874 42.983L50.4217 43.5486ZM52.4731 44.4022C53.2685 44.4022 53.9579 44.1137 54.519 43.5473L53.9507 42.9843C53.5391 43.3997 53.0541 43.6022 52.4731 43.6022V44.4022ZM54.5177 43.5486C55.0828 42.9835 55.3712 42.2925 55.3712 41.4972H54.5712C54.5712 42.0782 54.3686 42.5663 53.952 42.983L54.5177 43.5486ZM63.2555 43.9746L62.9736 43.6908L62.9727 43.6918L63.2555 43.9746ZM58.3076 43.9746L58.0247 44.2575L58.0257 44.2584L58.3076 43.9746ZM58.3076 39.0267L58.0257 38.7429L58.0247 38.7438L58.3076 39.0267ZM63.2555 39.0267L62.9727 39.3095L62.9736 39.3105L63.2555 39.0267ZM62.5467 39.7355L62.2625 40.017L62.2639 40.0183L62.5467 39.7355ZM59.0164 39.7355L58.7335 39.4526L58.7322 39.454L59.0164 39.7355ZM59.0164 43.2658L58.7322 43.5473L58.7335 43.5486L59.0164 43.2658ZM62.5467 43.2658L62.2639 42.983L62.2625 42.9843L62.5467 43.2658ZM63.8878 41.4972C63.8878 42.3584 63.5864 43.0822 62.9736 43.6908L63.5374 44.2584C64.301 43.4999 64.6878 42.572 64.6878 41.4972H63.8878ZM62.9727 43.6918C62.3638 44.3006 61.6419 44.6 60.785 44.6V45.4C61.8549 45.4 62.7801 45.0158 63.5384 44.2575L62.9727 43.6918ZM60.785 44.6C59.928 44.6 59.2033 44.3006 58.5895 43.6908L58.0257 44.2584C58.7882 45.0159 59.7151 45.4 60.785 45.4V44.6ZM58.5904 43.6918C57.982 43.0833 57.6822 42.3593 57.6822 41.4972H56.8822C56.8822 42.5712 57.266 43.4988 58.0247 44.2575L58.5904 43.6918ZM57.6822 41.4972C57.6822 40.6403 57.9816 39.9184 58.5904 39.3095L58.0247 38.7438C57.2664 39.5021 56.8822 40.4273 56.8822 41.4972H57.6822ZM58.5895 39.3105C59.2033 38.7007 59.928 38.4013 60.785 38.4013V37.6013C59.7151 37.6013 58.7882 37.9854 58.0257 38.7429L58.5895 39.3105ZM60.785 38.4013C61.6419 38.4013 62.3638 38.7007 62.9727 39.3095L63.5384 38.7438C62.7801 37.9855 61.8549 37.6013 60.785 37.6013V38.4013ZM62.9736 39.3105C63.5868 39.9195 63.8878 40.6411 63.8878 41.4972H64.6878C64.6878 40.4264 64.3006 39.501 63.5374 38.7429L62.9736 39.3105ZM63.6831 41.4972C63.6831 40.7057 63.3942 40.0172 62.8296 39.4526L62.2639 40.0183C62.6811 40.4355 62.8831 40.9215 62.8831 41.4972H63.6831ZM62.8309 39.454C62.2698 38.8876 61.5804 38.5991 60.785 38.5991V39.3991C61.3659 39.3991 61.851 39.6016 62.2625 40.017L62.8309 39.454ZM60.785 38.5991C59.9897 38.5991 59.2987 38.8875 58.7335 39.4526L59.2992 40.0183C59.7159 39.6017 60.204 39.3991 60.785 39.3991V38.5991ZM58.7322 39.454C58.1726 40.0189 57.8869 40.7069 57.8869 41.4972H58.6869C58.6869 40.9203 58.8876 40.4339 59.3006 40.017L58.7322 39.454ZM57.8869 41.4972C57.8869 42.2913 58.1721 42.9819 58.7322 43.5473L59.3006 42.9843C58.8881 42.568 58.6869 42.0795 58.6869 41.4972H57.8869ZM58.7335 43.5486C59.2987 44.1138 59.9897 44.4022 60.785 44.4022V43.6022C60.204 43.6022 59.7159 43.3996 59.2992 42.983L58.7335 43.5486ZM60.785 44.4022C61.5804 44.4022 62.2698 44.1137 62.8309 43.5473L62.2625 42.9843C61.851 43.3997 61.3659 43.6022 60.785 43.6022V44.4022ZM62.8296 43.5486C63.3947 42.9835 63.6831 42.2925 63.6831 41.4972H62.8831C62.8831 42.0782 62.6805 42.5663 62.2639 42.983L62.8296 43.5486ZM71.1132 44.8555L71.3961 45.1383H71.3961L71.1132 44.8555ZM70.4113 44.8555L70.1284 45.1383H70.1284L70.4113 44.8555ZM67.4108 41.8551L67.6937 41.5722L67.4108 41.8551ZM67.2663 41.5935L67.6593 41.5187L66.8663 41.5935H67.2663ZM67.2663 41.4077H66.8663L67.6593 41.4826L67.2663 41.4077ZM67.4108 41.1462L67.6937 41.4291V41.4291L67.4108 41.1462ZM70.4113 38.1458L70.1284 37.863L70.1284 37.863L70.4113 38.1458ZM71.1132 38.1527L70.8242 38.4292L70.8303 38.4356L70.8367 38.4417L71.1132 38.1527ZM71.1201 38.8546L71.4026 39.1379L71.4092 39.1311L71.1201 38.8546ZM68.4706 41.4972L68.1882 41.214L67.9046 41.4968L68.1878 41.78L68.4706 41.4972ZM71.1201 44.1467L71.4092 43.8701L71.4029 43.8638L71.1201 44.1467ZM70.8715 44.4976C70.8715 44.5113 70.8708 44.5322 70.8304 44.5726L71.3961 45.1383C71.5666 44.9678 71.6715 44.7501 71.6715 44.4976H70.8715ZM70.8304 44.5726C70.7984 44.6046 70.7809 44.6069 70.7622 44.6069V45.4069C71.0096 45.4069 71.2262 45.3082 71.3961 45.1383L70.8304 44.5726ZM70.7622 44.6069C70.7435 44.6069 70.7261 44.6046 70.6941 44.5726L70.1284 45.1383C70.2983 45.3082 70.5149 45.4069 70.7622 45.4069V44.6069ZM70.6941 44.5726L67.6937 41.5722L67.128 42.1379L70.1284 45.1383L70.6941 44.5726ZM67.6937 41.5722C67.6651 41.5436 67.6608 41.5266 67.6593 41.5187L66.8734 41.6684C66.9086 41.8531 67.0006 42.0105 67.128 42.1379L67.6937 41.5722ZM66.8663 41.5935V44.4976H67.6663V41.5935H66.8663ZM66.8663 44.4976C66.8663 44.6034 66.8402 44.6093 66.8579 44.5916C66.8756 44.5738 66.8698 44.6 66.764 44.6V45.4C66.9931 45.4 67.2384 45.3425 67.4236 45.1573C67.6088 44.9721 67.6663 44.7267 67.6663 44.4976H66.8663ZM66.764 44.6C66.6582 44.6 66.6523 44.5738 66.67 44.5916C66.6878 44.6093 66.6616 44.6034 66.6616 44.4976H65.8616C65.8616 44.7267 65.9191 44.9721 66.1043 45.1573C66.2895 45.3425 66.5349 45.4 66.764 45.4V44.6ZM66.6616 44.4976V35.5032H65.8616V44.4976H66.6616ZM66.6616 35.5032C66.6616 35.3974 66.6878 35.3916 66.67 35.4093C66.6523 35.427 66.6582 35.4009 66.764 35.4009V34.6009C66.5349 34.6009 66.2895 34.6584 66.1043 34.8436C65.9191 35.0288 65.8616 35.2741 65.8616 35.5032H66.6616ZM66.764 35.4009C66.8698 35.4009 66.8756 35.427 66.8579 35.4093C66.8402 35.3916 66.8663 35.3974 66.8663 35.5032H67.6663C67.6663 35.2741 67.6088 35.0288 67.4236 34.8436C67.2384 34.6584 66.9931 34.6009 66.764 34.6009V35.4009ZM66.8663 35.5032V41.4077H67.6663V35.5032H66.8663ZM67.6593 41.4826C67.6608 41.4747 67.6651 41.4577 67.6937 41.4291L67.128 40.8634C67.0006 40.9908 66.9086 41.1481 66.8734 41.3329L67.6593 41.4826ZM67.6937 41.4291L70.6941 38.4286L70.1284 37.863L67.128 40.8634L67.6937 41.4291ZM70.6941 38.4286C70.7261 38.3967 70.7435 38.3944 70.7622 38.3944V37.5944C70.5149 37.5944 70.2983 37.6931 70.1284 37.863L70.6941 38.4286ZM70.7622 38.3944C70.7749 38.3944 70.7905 38.394 70.8242 38.4292L71.4023 37.8762C71.234 37.7003 71.0157 37.5944 70.7622 37.5944V38.3944ZM70.8367 38.4417C70.8719 38.4754 70.8715 38.491 70.8715 38.5037H71.6715C71.6715 38.2502 71.5656 38.0319 71.3897 37.8636L70.8367 38.4417ZM70.8715 38.5037C70.8715 38.5148 70.8713 38.5361 70.831 38.5781L71.4092 39.1311C71.5708 38.9622 71.6715 38.7494 71.6715 38.5037H70.8715ZM70.8376 38.5714L68.1882 41.214L68.7531 41.7804L71.4026 39.1378L70.8376 38.5714ZM68.1878 41.78L70.8373 44.4295L71.4029 43.8638L68.7535 41.2144L68.1878 41.78ZM70.831 44.4232C70.8713 44.4652 70.8715 44.4865 70.8715 44.4976H71.6715C71.6715 44.2519 71.5708 44.0391 71.4092 43.8702L70.831 44.4232Z" fill="#3B3938" mask="url(#path-10-outside-1_549_62872)"/>
</g>
<defs>
<clipPath id="clip0_549_62872">
<rect width="135.07" height="49" fill="white" transform="translate(0 0.0253906)"/>
</clipPath>
</defs>
</svg>
